<svg viewBox="0 0 1022.0999755859375 400" xmlns="http://www.w3.org/2000/svg"><g><g><g><g><g><line x1="61.73500061035156" y1="378.0640001296997" x2="56.73500061035156" y2="378.0640001296997" style="visibility: inherit;" fill="rgb(0, 0, 0)" stroke="rgb(204, 204, 204)" stroke-width="1px"></line><line x1="61.73500061035156" y1="343.6945455724543" x2="56.73500061035156" y2="343.6945455724543" style="visibility: inherit;" fill="rgb(0, 0, 0)" stroke="rgb(204, 204, 204)" stroke-width="1px"></line><line x1="61.73500061035156" y1="309.32509101520884" x2="56.73500061035156" y2="309.32509101520884" style="visibility: inherit;" fill="rgb(0, 0, 0)" stroke="rgb(204, 204, 204)" stroke-width="1px"></line><line x1="61.73500061035156" y1="274.95563645796346" x2="56.73500061035156" y2="274.95563645796346" style="visibility: inherit;" fill="rgb(0, 0, 0)" stroke="rgb(204, 204, 204)" stroke-width="1px"></line><line x1="61.73500061035156" y1="240.586181900718" x2="56.73500061035156" y2="240.586181900718" style="visibility: inherit;" fill="rgb(0, 0, 0)" stroke="rgb(204, 204, 204)" stroke-width="1px"></line><line x1="61.73500061035156" y1="206.21672734347254" x2="56.73500061035156" y2="206.21672734347254" style="visibility: inherit;" fill="rgb(0, 0, 0)" stroke="rgb(204, 204, 204)" stroke-width="1px"></line><line x1="61.73500061035156" y1="171.8472727862271" x2="56.73500061035156" y2="171.8472727862271" style="visibility: inherit;" fill="rgb(0, 0, 0)" stroke="rgb(204, 204, 204)" stroke-width="1px"></line><line x1="61.73500061035156" y1="137.47781822898176" x2="56.73500061035156" y2="137.47781822898176" style="visibility: inherit;" fill="rgb(0, 0, 0)" stroke="rgb(204, 204, 204)" stroke-width="1px"></line><line x1="61.73500061035156" y1="103.1083636717363" x2="56.73500061035156" y2="103.1083636717363" style="visibility: inherit;" fill="rgb(0, 0, 0)" stroke="rgb(204, 204, 204)" stroke-width="1px"></line><line x1="61.73500061035156" y1="68.73890911449087" x2="56.73500061035156" y2="68.73890911449087" style="visibility: inherit;" fill="rgb(0, 0, 0)" stroke="rgb(204, 204, 204)" stroke-width="1px"></line><line x1="61.73500061035156" y1="34.36945455724543" x2="56.73500061035156" y2="34.36945455724543" style="visibility: inherit;" fill="rgb(0, 0, 0)" stroke="rgb(204, 204, 204)" stroke-width="1px"></line><line x1="61.73500061035156" y1="0" x2="56.73500061035156" y2="0" style="visibility: inherit;" fill="rgb(0, 0, 0)" stroke="rgb(204, 204, 204)" stroke-width="1px"></line></g><g transform="translate(51.73500061035156, 0)"><text style="text-anchor: end; visibility: hidden; font-family: &quot;Helvetica Neue&quot;, sans-serif; font-size: 12px; font-weight: 200;" x="0" y="378.0640001296997" dx="0em" dy="0.3em" fill="rgb(50, 49, 63)" stroke="none" stroke-width="1px">-0.02</text><text style="text-anchor: end; visibility: inherit; font-family: &quot;Helvetica Neue&quot;, sans-serif; font-size: 12px; font-weight: 200;" x="0" y="343.6945455724543" dx="0em" dy="0.3em" fill="rgb(50, 49, 63)" stroke="none" stroke-width="1px">0</text><text style="text-anchor: end; visibility: inherit; font-family: &quot;Helvetica Neue&quot;, sans-serif; font-size: 12px; font-weight: 200;" x="0" y="309.32509101520884" dx="0em" dy="0.3em" fill="rgb(50, 49, 63)" stroke="none" stroke-width="1px">0.02</text><text style="text-anchor: end; visibility: inherit; font-family: &quot;Helvetica Neue&quot;, sans-serif; font-size: 12px; font-weight: 200;" x="0" y="274.95563645796346" dx="0em" dy="0.3em" fill="rgb(50, 49, 63)" stroke="none" stroke-width="1px">0.04</text><text style="text-anchor: end; visibility: inherit; font-family: &quot;Helvetica Neue&quot;, sans-serif; font-size: 12px; font-weight: 200;" x="0" y="240.586181900718" dx="0em" dy="0.3em" fill="rgb(50, 49, 63)" stroke="none" stroke-width="1px">0.06</text><text style="text-anchor: end; visibility: inherit; font-family: &quot;Helvetica Neue&quot;, sans-serif; font-size: 12px; font-weight: 200;" x="0" y="206.21672734347254" dx="0em" dy="0.3em" fill="rgb(50, 49, 63)" stroke="none" stroke-width="1px">0.08</text><text style="text-anchor: end; visibility: inherit; font-family: &quot;Helvetica Neue&quot;, sans-serif; font-size: 12px; font-weight: 200;" x="0" y="171.8472727862271" dx="0em" dy="0.3em" fill="rgb(50, 49, 63)" stroke="none" stroke-width="1px">0.1</text><text style="text-anchor: end; visibility: inherit; font-family: &quot;Helvetica Neue&quot;, sans-serif; font-size: 12px; font-weight: 200;" x="0" y="137.47781822898176" dx="0em" dy="0.3em" fill="rgb(50, 49, 63)" stroke="none" stroke-width="1px">0.12</text><text style="text-anchor: end; visibility: inherit; font-family: &quot;Helvetica Neue&quot;, sans-serif; font-size: 12px; font-weight: 200;" x="0" y="103.1083636717363" dx="0em" dy="0.3em" fill="rgb(50, 49, 63)" stroke="none" stroke-width="1px">0.14</text><text style="text-anchor: end; visibility: inherit; font-family: &quot;Helvetica Neue&quot;, sans-serif; font-size: 12px; font-weight: 200;" x="0" y="68.73890911449087" dx="0em" dy="0.3em" fill="rgb(50, 49, 63)" stroke="none" stroke-width="1px">0.16</text><text style="text-anchor: end; visibility: inherit; font-family: &quot;Helvetica Neue&quot;, sans-serif; font-size: 12px; font-weight: 200;" x="0" y="34.36945455724543" dx="0em" dy="0.3em" fill="rgb(50, 49, 63)" stroke="none" stroke-width="1px">0.18</text><text style="text-anchor: end; visibility: hidden; font-family: &quot;Helvetica Neue&quot;, sans-serif; font-size: 12px; font-weight: 200;" x="0" y="0" dx="0em" dy="0.3em" fill="rgb(50, 49, 63)" stroke="none" stroke-width="1px">0.2</text></g><line x1="61.73500061035156" y1="0" x2="61.73500061035156" y2="378.0640001296997" fill="rgb(0, 0, 0)" stroke="rgb(204, 204, 204)" stroke-width="1px"></line></g></g><g transform="translate(61, 0)" clip-path="url(#clip_0)"><clipPath id="clip_0"><rect width="960" height="378"></rect></clipPath><g><g><g><line x1="0" y1="0" x2="0" y2="378.0640001296997" fill="rgb(0, 0, 0)" stroke="rgb(60, 60, 60)" stroke-width="1px" opacity="0.25"></line><line x1="80.03041661580403" y1="0" x2="80.03041661580403" y2="378.0640001296997" fill="rgb(0, 0, 0)" stroke="rgb(60, 60, 60)" stroke-width="1px" opacity="0.25"></line><line x1="160.06083323160806" y1="0" x2="160.06083323160806" y2="378.0640001296997" fill="rgb(0, 0, 0)" stroke="rgb(60, 60, 60)" stroke-width="1px" opacity="0.25"></line><line x1="240.09124984741212" y1="0" x2="240.09124984741212" y2="378.0640001296997" fill="rgb(0, 0, 0)" stroke="rgb(60, 60, 60)" stroke-width="1px" opacity="0.25"></line><line x1="320.1216664632161" y1="0" x2="320.1216664632161" y2="378.0640001296997" fill="rgb(0, 0, 0)" stroke="rgb(60, 60, 60)" stroke-width="1px" opacity="0.25"></line><line x1="400.1520830790202" y1="0" x2="400.1520830790202" y2="378.0640001296997" fill="rgb(0, 0, 0)" stroke="rgb(60, 60, 60)" stroke-width="1px" opacity="0.25"></line><line x1="480.18249969482423" y1="0" x2="480.18249969482423" y2="378.0640001296997" fill="rgb(0, 0, 0)" stroke="rgb(60, 60, 60)" stroke-width="1px" opacity="0.25"></line><line x1="560.2129163106283" y1="0" x2="560.2129163106283" y2="378.0640001296997" fill="rgb(0, 0, 0)" stroke="rgb(60, 60, 60)" stroke-width="1px" opacity="0.25"></line><line x1="640.2433329264322" y1="0" x2="640.2433329264322" y2="378.0640001296997" fill="rgb(0, 0, 0)" stroke="rgb(60, 60, 60)" stroke-width="1px" opacity="0.25"></line><line x1="720.2737495422364" y1="0" x2="720.2737495422364" y2="378.0640001296997" fill="rgb(0, 0, 0)" stroke="rgb(60, 60, 60)" stroke-width="1px" opacity="0.25"></line><line x1="800.3041661580404" y1="0" x2="800.3041661580404" y2="378.0640001296997" fill="rgb(0, 0, 0)" stroke="rgb(60, 60, 60)" stroke-width="1px" opacity="0.25"></line><line x1="880.3345827738444" y1="0" x2="880.3345827738444" y2="378.0640001296997" fill="rgb(0, 0, 0)" stroke="rgb(60, 60, 60)" stroke-width="1px" opacity="0.25"></line><line x1="960.3649993896485" y1="0" x2="960.3649993896485" y2="378.0640001296997" fill="rgb(0, 0, 0)" stroke="rgb(60, 60, 60)" stroke-width="1px" opacity="0.25"></line></g><g><line x1="0" y1="378.0640001296997" x2="960.3649993896485" y2="378.0640001296997" fill="rgb(0, 0, 0)" stroke="rgb(60, 60, 60)" stroke-width="1px" opacity="0.25"></line><line x1="0" y1="343.6945455724543" x2="960.3649993896485" y2="343.6945455724543" fill="rgb(0, 0, 0)" stroke="rgb(60, 60, 60)" stroke-width="1px" opacity="0.25"></line><line x1="0" y1="309.32509101520884" x2="960.3649993896485" y2="309.32509101520884" fill="rgb(0, 0, 0)" stroke="rgb(60, 60, 60)" stroke-width="1px" opacity="0.25"></line><line x1="0" y1="274.95563645796346" x2="960.3649993896485" y2="274.95563645796346" fill="rgb(0, 0, 0)" stroke="rgb(60, 60, 60)" stroke-width="1px" opacity="0.25"></line><line x1="0" y1="240.586181900718" x2="960.3649993896485" y2="240.586181900718" fill="rgb(0, 0, 0)" stroke="rgb(60, 60, 60)" stroke-width="1px" opacity="0.25"></line><line x1="0" y1="206.21672734347254" x2="960.3649993896485" y2="206.21672734347254" fill="rgb(0, 0, 0)" stroke="rgb(60, 60, 60)" stroke-width="1px" opacity="0.25"></line><line x1="0" y1="171.8472727862271" x2="960.3649993896485" y2="171.8472727862271" fill="rgb(0, 0, 0)" stroke="rgb(60, 60, 60)" stroke-width="1px" opacity="0.25"></line><line x1="0" y1="137.47781822898176" x2="960.3649993896485" y2="137.47781822898176" fill="rgb(0, 0, 0)" stroke="rgb(60, 60, 60)" stroke-width="1px" opacity="0.25"></line><line x1="0" y1="103.1083636717363" x2="960.3649993896485" y2="103.1083636717363" fill="rgb(0, 0, 0)" stroke="rgb(60, 60, 60)" stroke-width="1px" opacity="0.25"></line><line x1="0" y1="68.73890911449087" x2="960.3649993896485" y2="68.73890911449087" fill="rgb(0, 0, 0)" stroke="rgb(60, 60, 60)" stroke-width="1px" opacity="0.25"></line><line x1="0" y1="34.36945455724543" x2="960.3649993896485" y2="34.36945455724543" fill="rgb(0, 0, 0)" stroke="rgb(60, 60, 60)" stroke-width="1px" opacity="0.25"></line><line x1="0" y1="0" x2="960.3649993896485" y2="0" fill="rgb(0, 0, 0)" stroke="rgb(60, 60, 60)" stroke-width="1px" opacity="0.25"></line></g></g></g><g><g><line x1="0" y1="343.6945455724543" x2="960.3649993896485" y2="343.6945455724543" fill="rgb(0, 0, 0)" stroke="rgb(153, 153, 153)" stroke-width="1.5px"></line></g></g><g><g><line x1="80.03041661580403" y1="0" x2="80.03041661580403" y2="378.0640001296997" fill="rgb(0, 0, 0)" stroke="rgb(153, 153, 153)" stroke-width="1.5px"></line></g></g><g><g><g><g><g><path style="fill: none;" stroke="rgb(0, 153, 136)" stroke-width="2px" d="M80.03041661580403,331.7607070956078L84.03193744659424,324.3020580475788L88.03345827738444,324.0483629100061L92.03497910817465,323.93643858460644L96.03649993896485,320.42866823217423L100.03802076975505,314.3344941377778L104.03954160054525,308.40969548890706L108.04106243133545,304.9627777613833L112.04258326212566,303.7357451970156L116.04410409291586,301.4066292624886L120.04562492370606,294.4288025225251L124.04714575449627,287.86637058765325L128.04866658528647,282.3448073645644L132.05018741607668,282.22133922732826L136.05170824686687,284.53521186361604L140.05322907765708,281.9437701040226L144.05474990844726,281.9808198970691L148.05627073923748,280.41170663922225L152.05779157002766,272.3096004475222L156.05931240081787,277.7916923298736L160.06083323160806,272.3291458040638L164.06235406239827,273.0296932599104L168.06387489318848,272.65441823665515L172.0653957239787,274.816035244614L176.06691655476888,276.1129988941286L180.0684373855591,271.32204140173224L184.0699582163493,281.17691159343144L188.0714790471395,279.9295202500982L192.0729998779297,270.4296013201648L196.0745207087199,268.7075994008163L200.0760415395101,266.87880963566425L204.07756237030029,257.03005384568036L208.0790832010905,271.80612092736783L212.08060403188068,271.9202778040607L216.0821248626709,277.55789840674635L220.0836456934611,279.3492906258883L224.08516652425132,282.01530601942727L228.0866873550415,265.31636108538294L232.08820818583172,268.82201321578725L236.0897290166219,271.7209932417487L240.09124984741212,271.0736124372452L244.0927706782023,268.29841769876475L248.09429150899254,265.83770954392344L252.09581233978273,262.77010714788975L256.09733317057294,264.11190327828047L260.0988540013631,265.71256970812925L264.10037483215336,269.05973838175L268.10189566294355,263.11214694767546L272.10341649373373,259.54359208731626L276.1049373245239,259.78922542611286L280.10645815531416,262.32337424508717L284.10797898610434,257.47914840176526L288.1094998168945,259.34614796643757L292.1110206476847,251.71486631558753L296.11254147847495,252.70522370811216L300.11406230926514,256.48179315024385L304.1155831400553,253.1786109932186L308.11710397084556,248.80993544404149L312.11862480163575,260.50933532648105L316.12014563242593,264.34661768860406L320.1216664632161,259.48868321954336L324.12318729400636,255.778333786453L328.12470812479654,251.16535787163673L332.1262289555867,248.39757232274698L336.12774978637697,245.94131224175914L340.1292706171672,247.6499111997825L344.1307914479574,250.26625063862855L348.1323122787476,242.28898159991604L352.13383310953776,247.04969287870864L356.135353940328,242.74581575965013L360.1368747711182,244.14143580720906L364.13839560190837,245.77439658739846L368.1399164326986,250.73211937450617L372.1414372634888,253.7067530467708L376.142958094279,261.85624838480965L380.14447892506917,261.1768192046069L384.1459997558594,259.1779841931772L388.1475205866496,264.34339576027554L392.1490414174398,262.6691076298864L396.15056224822996,257.68658843265894L400.1520830790202,254.6970769143224L404.1536039098104,256.88131632231455L408.15512474060057,258.98744871876386L412.15664557139075,252.29523807936926L416.158166402181,246.6887316317005L420.1596872329712,258.4410242874215L424.16120806376136,254.35414967552595L428.1627288945516,243.94613483112437L432.1642497253418,240.88368093109952L436.16577055613203,243.02415491007872L440.1672913869222,238.7393154751641L444.16881221771246,239.35076682083144L448.17033304850264,238.1264601249238L452.1718538792928,237.39187610737923L456.173374710083,239.33789451253847L460.17489554087325,243.68786056225014L464.17641637166344,238.341947554089L468.1779372024536,237.5211685648783L472.1794580332438,243.3934137453081L476.18097886403405,237.36969327299366L480.18249969482423,233.75546098960498L484.1840205256144,236.36045412949596L488.1855413564046,239.51463007746253L492.1870621871948,233.4512404475304L496.1885830179851,239.36027937159128L500.19010384877527,249.27041786070785L504.19162467956545,248.85178581949774L508.19314551035563,252.57855291376572L512.1946663411459,242.88077677406824L516.196187171936,240.24446609686586L520.1977080027262,241.84503725788446L524.1992288335164,240.41861113880964L528.2007496643067,235.5848117090946L532.2022704950969,231.09334942650966L536.2037913258871,233.17200968833072L540.2053121566772,230.4412595264293L544.2068329874675,235.96311331562254L548.2083538182576,234.5026905184904L552.2098746490478,233.62643684021108L556.2113954798381,238.66980845554565L560.2129163106283,237.71788510575232L564.2144371414184,232.3731934645043L568.2159579722087,233.14432479874955L572.2174788029988,224.85552477037848L576.218999633789,227.83813739134396L580.2205204645793,229.62770496392324L584.2220412953694,227.51908537940685L588.2235621261598,230.23185994769108L592.2250829569499,223.9036320506735L596.2266037877401,221.69787793721883L600.2281246185303,234.69503068109032L604.2296454493205,227.377125803091L608.2311662801106,231.73786426593355L612.2326871109009,235.94548740767107L616.2342079416911,226.53622233573137L620.2357287724814,223.27743210825355L624.2372496032715,221.32215797176687L628.2387704340617,230.4916523828251L632.2402912648519,222.46833000844583L636.2418120956421,226.40582053418436L640.2433329264322,227.1771373463194L644.2448537572225,228.43551362453056L648.2463745880127,229.9861307038352L652.247895418803,231.7120871423481L656.2494162495931,230.36089731121766L660.2509370803833,225.57223709354534L664.2524579111735,233.04169985589218L668.2539787419637,228.7718961236581L672.2554995727539,233.37031520992787L676.2570204035442,232.15142034269562L680.2585412343344,221.07742709013L684.2600620651245,218.41097233613684L688.2615828959148,216.01551329281082L692.2631037267049,214.57823786681524L696.2646245574952,219.28499643352L700.2661453882853,215.74433643886277L704.2676662190755,213.61994044206847L708.2691870498658,213.93648034729992L712.270707880656,216.5131731061248L716.2722287114461,218.05918876141973L720.2737495422364,218.19121196366658L724.2752703730265,219.86160338832275L728.2767912038167,218.47706942743042L732.2783120346069,217.64634905089508L736.2798328653972,210.78320169029377L740.2813536961874,204.27854957969478L744.2828745269776,208.33164582987573L748.2843953577677,219.51498753035034L752.285916188558,221.4514549192631L756.2874370193481,214.65744783607047L760.2889578501383,209.7854522737769L764.2904786809286,213.2269700710809L768.2919995117188,215.29188074946327L772.293520342509,214.9396445317368L776.2950411732992,212.34153910686277L780.2965620040894,205.2135520296362L784.2980828348796,217.64413125020664L788.2996036656698,226.69365628585695L792.3011244964599,215.4159998403408L796.3026453272503,213.42293848295526L800.3041661580404,224.16094062550616L804.3056869888306,212.30519294082222L808.3072078196208,205.98733052094198L812.308728650411,218.1083983449901L816.3102494812011,207.87807626013466L820.3117703119914,192.98839905885532L824.3132911427815,195.1928455041398L828.3148119735719,201.28904588123467L832.316332804362,184.26144832159113L836.3178536351522,201.8905140187635L840.3193744659424,202.12529198339274L844.3208952967326,199.87938994648434L848.3224161275227,202.50979504333333L852.323936958313,206.47480691712872L856.3254577891032,210.44499154471404L860.3269786198935,200.0976771733529L864.3284994506836,204.23194488276252L868.3300202814738,204.32574181417013L872.3315411122641,201.99525115732868L876.3330619430542,201.3925429541539" fill="none"></path></g><g><path style="fill: none;" stroke="rgb(0, 119, 187)" stroke-width="2px" d="M80.03041661580403,299.93713862424346L84.03193744659424,239.0248388155517L88.03345827738444,206.1712678988549L92.03497910817465,189.84894039797322L96.03649993896485,161.68211077870163L100.03802076975505,145.41785433895006L104.03954160054525,135.34043622078948L108.04106243133545,134.33269488696843L112.04258326212566,128.91686467092822L116.04410409291586,125.70250965620426L120.04562492370606,117.39848561208515L124.04714575449627,119.61132124896005L128.04866658528647,107.39323163627876L132.05018741607668,107.23852075082499L136.05170824686687,113.51347586034854L140.05322907765708,119.66400248323646L144.05474990844726,123.35320778502765L148.05627073923748,115.22261931099752L152.05779157002766,113.52734367213634L156.05931240081787,119.67081265410962L160.06083323160806,120.96992911130155L164.06235406239827,109.81538983348213L168.06387489318848,123.80824137641522L172.0653957239787,113.10964569833106L176.06691655476888,108.28170788429622L180.0684373855591,103.79376864148139L184.0699582163493,107.46573676574877L188.0714790471395,104.09978799277332L192.0729998779297,102.87580653594398L196.0745207087199,102.14141795047613L200.0760415395101,96.92724663854722L204.07756237030029,105.73258932223763L208.0790832010905,117.38050480110758L212.08060403188068,115.61777465279613L216.0821248626709,103.42187851715761L220.0836456934611,110.42495401177928L224.08516652425132,120.99150931494461L228.0866873550415,116.19319476902962L232.08820818583172,104.56272720446788L236.0897290166219,108.72269434180754L240.09124984741212,114.40102962982098L244.0927706782023,104.2830143329154L248.09429150899254,105.37251160701373L252.09581233978273,110.00415116950683L256.09733317057294,102.44047345173982L260.0988540013631,96.31109443962345L264.10037483215336,110.93201600349732L268.10189566294355,112.54426761570062L272.10341649373373,111.12484976728132L276.1049373245239,105.49966142683127L280.10645815531416,113.2627960672487L284.10797898610434,121.10303697954822L288.1094998168945,117.05569757653194L292.1110206476847,117.80965918424187L296.11254147847495,111.89731589273549L300.11406230926514,99.59843108891238L304.1155831400553,96.99263783799461L308.11710397084556,92.2467966379321L312.11862480163575,102.92431862108208L316.12014563242593,114.89995051182609L320.1216664632161,113.33384569590572L324.12318729400636,102.05152135267923L328.12470812479654,99.2600781871854L332.1262289555867,89.62931964990094L336.12774978637697,86.23763334321632L340.1292706171672,108.86588566410018L344.1307914479574,98.57515914266594L348.1323122787476,94.78749204549149L352.13383310953776,97.28842941855879L356.135353940328,113.10959449361957L360.1368747711182,108.28169088743562L364.13839560190837,114.13642755264351L368.1399164326986,100.14631189393174L372.1414372634888,105.27725895899499L376.142958094279,98.01316574435879L380.14447892506917,96.04147863126309L384.1459997558594,102.81435900139371L388.1475205866496,100.51336696734427L392.1490414174398,99.13277174691456L396.15056224822996,107.85148987740081L400.1520830790202,105.92241430863447L404.1536039098104,108.7429204078166L408.15512474060057,101.68373499551194L412.15664557139075,95.06145493244321L416.158166402181,110.18223229864213L420.1596872329712,97.77379474153088L424.16120806376136,102.2625660427986L428.1627288945516,89.839629738513L432.1642497253418,95.91088441623197L436.16577055613203,104.3271748542353L440.1672913869222,89.48722264351483L444.16881221771246,84.56119251462877L448.17033304850264,91.94823589097132L452.1718538792928,97.97164454153267L456.173374710083,99.99450710711358L460.17489554087325,104.39057965307825L464.17641637166344,95.09438934512275L468.1779372024536,109.40640675531972L472.1794580332438,100.49065442215357L476.18097886403405,106.27945066685811L480.18249969482423,88.27181931540247L484.1840205256144,91.7878431557495L488.1855413564046,96.28422627564368L492.1870621871948,94.20851851620824L496.1885830179851,100.12340030760498L500.19010384877527,117.99293715511118L504.19162467956545,112.8028688661908L508.19314551035563,98.55058024823438L512.1946663411459,93.97715851790235L516.196187171936,96.00664311107522L520.1977080027262,84.49490359761876L524.1992288335164,93.49964516552114L528.2007496643067,95.72013509964648L532.2022704950969,83.52741259983145L536.2037913258871,88.94119912640684L540.2053121566772,80.25563720681777L544.2068329874675,84.59136507491269L548.2083538182576,80.03250559160728L552.2098746490478,79.68395871731002L556.2113954798381,98.56897087532406L560.2129163106283,90.80583788754012L564.2144371414184,93.30825429903211L568.2159579722087,92.42293533024127L572.2174788029988,95.07410919847854L576.218999633789,83.13979705913067L580.2205204645793,90.29981242674233L584.2220412953694,106.52966060429145L588.2235621261598,97.17342410678077L592.2250829569499,113.0405913065527L596.2266037877401,113.01382660656753L600.2281246185303,114.58894016843664L604.2296454493205,97.23545421389588L608.2311662801106,97.96162052867129L612.2326871109009,98.39732031753653L616.2342079416911,95.47637494134392L620.2357287724814,88.1546838933262L624.2372496032715,89.33079308681772L628.2387704340617,91.62764122766856L632.2402912648519,94.59693273693489L636.2418120956421,93.99173882680867L640.2433329264322,107.15363894102319L644.2448537572225,112.66401019386598L648.2463745880127,104.83198530096735L652.247895418803,91.3812812934143L656.2494162495931,84.1064553227082L660.2509370803833,86.10626975351681L664.2524579111735,92.87528223430411L668.2539787419637,100.91464116321833L672.2554995727539,97.7823638825788L676.2570204035442,112.61036898110149L680.2585412343344,107.1865693889946L684.2600620651245,112.6837684626488L688.2615828959148,104.04824382841133L692.2631037267049,110.80077312629885L696.2646245574952,96.55373661336904L700.2661453882853,102.32611735683156L704.2676662190755,93.85571196737465L708.2691870498658,97.52494756261882L712.270707880656,90.97501009084704L716.2722287114461,92.61417143008612L720.2737495422364,108.71386219722791L724.2752703730265,101.66630006915875L728.2767912038167,93.45982159477097L732.2783120346069,94.9006445233706L736.2798328653972,88.60484207636802L740.2813536961874,73.6891027206666L744.2828745269776,92.585288461652L748.2843953577677,96.76269345918519L752.285916188558,106.4294429047631L756.2874370193481,93.93093848044765L760.2889578501383,103.13920729276475L764.2904786809286,99.11710356030659L768.2919995117188,106.2509063406801L772.293520342509,112.12237063366007L776.2950411732992,99.73346393347185L780.2965620040894,102.64278136703302L784.2980828348796,98.81924800486757L788.2996036656698,99.70748299418443L792.3011244964599,83.53305252086813L796.3026453272503,95.30930333515681L800.3041661580404,87.25885473868385L804.3056869888306,91.97566084354406L808.3072078196208,81.28072804617L812.308728650411,87.59318839421002L816.3102494812011,96.94978842533612L820.3117703119914,106.54169988445369L824.3132911427815,98.77183029963402L828.3148119735719,95.70108093060236L832.316332804362,102.61012038099739L836.3178536351522,95.61728616373438L840.3193744659424,86.64805824490031L844.3208952967326,88.4268176977622L848.3224161275227,94.26761100085139L852.323936958313,92.99854935133283L856.3254577891032,109.74008026235379L860.3269786198935,103.87321353299018L864.3284994506836,105.12663112674403L868.3300202814738,86.7845414004039L872.3315411122641,94.87342784719226L876.3330619430542,106.09146972849754" fill="none"></path></g><g><path style="fill: none;" stroke="rgb(238, 51, 119)" stroke-width="2px" d="M80.03041661580403,272.091513110923L84.03193744659424,263.389757138576L88.03345827738444,252.60769845577056L92.03497910817465,228.65585203739795L96.03649993896485,207.81220917524644L100.03802076975505,186.37980472352052L104.03954160054525,166.81224453611233L108.04106243133545,134.38958084362392L112.04258326212566,122.52124964545601L116.04410409291586,110.67469740061847L120.04562492370606,106.00823665851311L124.04714575449627,108.0031598975865L128.04866658528647,109.99396789459712L132.05018741607668,107.20571612876313L136.05170824686687,107.92205568724216L140.05322907765708,109.94327544328905L144.05474990844726,121.50004959663943L148.05627073923748,114.90646668711315L152.05779157002766,96.62927019540149L156.05931240081787,107.14535962231423L160.06083323160806,100.7250576823638L164.06235406239827,95.28177333294394L168.06387489318848,99.17620132836538L172.0653957239787,98.33046835612191L176.06691655476888,95.43625553616477L180.0684373855591,108.81595798089467L184.0699582163493,112.86581957185297L188.0714790471395,97.79275522441986L192.0729998779297,100.68276077261748L196.0745207087199,102.41676342003728L200.0760415395101,90.72774304819956L204.07756237030029,92.46581134282457L208.0790832010905,95.09983493180829L212.08060403188068,95.88465254807898L216.0821248626709,90.78641918541103L220.0836456934611,88.52306542303745L224.08516652425132,74.43563307531161L228.0866873550415,88.2596690943983L232.08820818583172,94.96290804469743L236.0897290166219,106.1451578619484L240.09124984741212,101.71626008919475L244.0927706782023,100.65010405333754L248.09429150899254,102.3971690056311L252.09581233978273,86.73803650688353L256.09733317057294,94.84552491192278L260.0988540013631,101.3011903363664L264.10037483215336,101.99223458403975L268.10189566294355,84.108307040554L272.10341649373373,76.56031576427426L276.1049373245239,83.96535483420229L280.10645815531416,86.02160946042324L284.10797898610434,100.78037869647903L288.1094998168945,92.92826877114948L292.1110206476847,94.58171282919943L296.11254147847495,90.00465544172266L300.11406230926514,85.6672486273776L304.1155831400553,97.38540718999525L308.11710397084556,91.6868720582022L312.11862480163575,96.22364361711573L316.12014563242593,94.17216892109133L320.1216664632161,94.53246672823275L324.12318729400636,104.29572067526175L328.12470812479654,88.67276394520042L332.1262289555867,87.25487230225627L336.12774978637697,87.99531994124561L340.1292706171672,89.23517471556937L344.1307914479574,92.36585639584968L348.1323122787476,95.83544802877367L352.13383310953776,85.187772739168L356.135353940328,93.11977021662489L360.1368747711182,93.9010275055528L364.13839560190837,90.39183043846771L368.1399164326986,89.8774948229725L372.1414372634888,103.0939099139656L376.142958094279,87.15608105459711L380.14447892506917,76.00221135711575L384.1459997558594,84.42607838077748L388.1475205866496,82.32010239081217L392.1490414174398,86.62564061913508L396.15056224822996,93.98249094460516L400.1520830790202,88.05394992910874L404.1536039098104,72.5629812413809L408.15512474060057,89.52284675839462L412.15664557139075,90.9472872396845L416.158166402181,93.39312391031876L420.1596872329712,89.2915020903971L424.16120806376136,83.648173991828L428.1627288945516,78.67099450793069L432.1642497253418,83.6405794555804" fill="none"></path></g><g><path style="fill: none;" stroke="rgb(204, 51, 17)" stroke-width="2px" d="M80.03041661580403,319.82686861876135L84.03193744659424,306.1526779471627L88.03345827738444,297.90757329389515L92.03497910817465,284.2154758944272L96.03649993896485,276.36898109007717L100.03802076975505,272.0706864067061L104.03954160054525,275.35326587225984L108.04106243133545,267.55283490721104L112.04258326212566,259.7425261298755L116.04410409291586,248.70358998144178L120.04562492370606,256.4958518264959L124.04714575449627,248.39587925109825L128.04866658528647,242.75056309601342L132.05018741607668,235.38702988741412L136.05170824686687,238.13627943641617L140.05322907765708,230.23523739786702L144.05474990844726,220.72169318893356L148.05627073923748,225.3583093370121L152.05779157002766,221.7748746365603L156.05931240081787,208.48629868037733L160.06083323160806,206.87831881856414L164.06235406239827,207.50475192417844L168.06387489318848,195.94667330770548L172.0653957239787,201.74137002085683L176.06691655476888,187.71515793505557L180.0684373855591,186.45977486610371L184.0699582163493,176.159461361171L188.0714790471395,176.34399904848667L192.0729998779297,166.11206144530198L196.0745207087199,154.4037711212678L200.0760415395101,157.72146140899198L204.07756237030029,162.0988443056207L208.0790832010905,153.58702564415645L212.08060403188068,155.64023623817116L216.0821248626709,162.44128647497004L220.0836456934611,160.9527926624794L224.08516652425132,158.4685188716556L228.0866873550415,153.79559446712025L232.08820818583172,155.76537747751095L236.0897290166219,145.80899962144352L240.09124984741212,143.81311923850546L244.0927706782023,148.18471483474926L248.09429150899254,142.0561882382562L252.09581233978273,136.78789477790917L256.09733317057294,126.46661225448278L260.0988540013631,117.88707392527868L264.10037483215336,111.14817854617894L268.10189566294355,119.0386802761306L272.10341649373373,126.15974500825857L276.1049373245239,118.49855001184312L280.10645815531416,126.63125816200755L284.10797898610434,110.02996883229218L288.1094998168945,120.7545181418783L292.1110206476847,116.84658627393304L296.11254147847495,122.45772491260942L300.11406230926514,116.27733795451326L304.1155831400553,110.9779231549008L308.11710397084556,121.3232907354261L312.11862480163575,117.18784983006543L316.12014563242593,116.29776791160526L320.1216664632161,108.60341231347093L324.12318729400636,115.12504659919489L328.12470812479654,114.26449978215282L332.1262289555867,102.6099138044276L336.12774978637697,89.25245220456031L340.1292706171672,104.31006696767417L344.1307914479574,105.38874318755444L348.1323122787476,107.62712130134281L352.13383310953776,105.78779316299972L356.135353940328,98.31948626676149L360.1368747711182,87.47378187289081L364.13839560190837,79.37518685470809L368.1399164326986,98.38370775776292L372.1414372634888,84.32995976087551L376.142958094279,78.2844797784291L380.14447892506917,80.22631561126332L384.1459997558594,96.50761619600996L388.1475205866496,95.93373509318388L392.1490414174398,100.36294406286027L396.15056224822996,88.69985655055001L400.1520830790202,87.27112786546598L404.1536039098104,89.59625590392739L408.15512474060057,94.17368773362034L412.15664557139075,118.40105592971452L416.158166402181,93.15801365743033L420.1596872329712,85.17249474111787L424.16120806376136,91.51943103593459L428.1627288945516,89.75846899052249L432.1642497253418,91.08866057896125L436.16577055613203,102.22943698569867L440.1672913869222,95.3888761265552L444.16881221771246,88.10218460445299L448.17033304850264,102.02872378285394L452.1718538792928,80.94784555362799L456.173374710083,77.05079744501063L460.17489554087325,83.46405765165417L464.17641637166344,88.90318615750044L468.1779372024536,92.1666632610083L472.1794580332438,104.46741097678711L476.18097886403405,99.91402577072006L480.18249969482423,81.27020937110359L484.1840205256144,88.38247362299597L488.1855413564046,91.05864954937545L492.1870621871948,91.07317248044728L496.1885830179851,92.6730688638462L500.19010384877527,102.38448552280386L504.19162467956545,89.11719523558611L508.19314551035563,87.52153107648769L512.1946663411459,90.54208402147049L516.196187171936,82.80734052571614L520.1977080027262,81.3488596777753L524.1992288335164,90.02083618885922L528.2007496643067,100.79314591781167L532.2022704950969,105.66535937332287L536.2037913258871,94.26807455251361L540.2053121566772,89.81647247571402L544.2068329874675,89.5322800453203L548.2083538182576,79.81469956723566L552.2098746490478,91.48710893822147L556.2113954798381,100.08173718556878L560.2129163106283,87.73554623324503L564.2144371414184,94.64843431307116L568.2159579722087,98.00058097003671L572.2174788029988,106.37658922034393L576.218999633789,94.69481246072621L580.2205204645793,102.80194549000174L584.2220412953694,94.1412088472768L588.2235621261598,104.85655213761811L592.2250829569499,101.73868284907894L596.2266037877401,96.68560626933925L600.2281246185303,104.79200796609967L604.2296454493205,98.51760133955167L608.2311662801106,90.77501616607663L612.2326871109009,86.92505125292172L616.2342079416911,79.84153467365678L620.2357287724814,92.2987961930042L624.2372496032715,78.29224400633427L628.2387704340617,72.27508151001831L632.2402912648519,73.43832164360072L636.2418120956421,79.70538954605229L640.2433329264322,74.71415145860499L644.2448537572225,85.24442506642686L648.2463745880127,78.83315896175986L652.247895418803,78.9643507394016L656.2494162495931,84.61218962828872L660.2509370803833,80.84058651456303L664.2524579111735,73.80408701495554L668.2539787419637,78.33366614410932L672.2554995727539,90.59848888434561L676.2570204035442,88.41030726574337L680.2585412343344,83.11945709703576L684.2600620651245,76.76259198919502L688.2615828959148,85.6779031938508L692.2631037267049,83.86678346958621L696.2646245574952,70.84626755659747L700.2661453882853,94.06194236982662L704.2676662190755,84.91925553472981L708.2691870498658,80.22923986749754L712.270707880656,77.41523046715821L716.2722287114461,70.95328719558256L720.2737495422364,73.44083124586939L724.2752703730265,66.18187884712324L728.2767912038167,84.1030026970841L732.2783120346069,102.01598345411861L736.2798328653972,89.69168018530502L740.2813536961874,102.98242113136519L744.2828745269776,104.592155685769L748.2843953577677,99.98887259610916L752.285916188558,96.43130630848748L756.2874370193481,89.52323914743812L760.2889578501383,98.10781887727302L764.2904786809286,96.89385670194173L768.2919995117188,102.53018940997515L772.293520342509,87.61344518602863L776.2950411732992,89.80164629626495L780.2965620040894,83.95426051534866L784.2980828348796,77.26347404018281L788.2996036656698,77.22694335262958L792.3011244964599,83.56974519622554L796.3026453272503,81.80630248008094L800.3041661580404,80.74823685039428L804.3056869888306,88.06929011057031L808.3072078196208,78.93690560638572L812.308728650411,75.8442334766653L816.3102494812011,75.5798128235889L820.3117703119914,77.01234305649899L824.3132911427815,85.82775383423319L828.3148119735719,77.59198384058345L832.316332804362,68.67257040395174L836.3178536351522,68.09445997334461L840.3193744659424,62.17846989267832L844.3208952967326,86.47449495578911L848.3224161275227,72.41089444831925L852.323936958313,81.4757020445694L856.3254577891032,80.54987658908732L860.3269786198935,81.58555369765827L864.3284994506836,95.73197642309111L868.3300202814738,77.9653833287004L872.3315411122641,80.83044393235622L876.3330619430542,86.52743173499164" fill="none"></path></g></g></g></g><g opacity="0.2"><g><g><g><path style="fill: none;" stroke="rgb(0, 153, 136)" stroke-width="2px" d="M80.03041661580403,331.7607070956078L84.03193744659424,319.82686861876135L88.03345827738444,323.8048155779364L92.03497910817465,323.8048155779364L96.03649993896485,315.84892326003876L100.03802076975505,305.90405746255357L104.03954160054525,299.93713862424346L108.04106243133545,299.93713862424346L112.04258326212566,301.92611050337854L116.04410409291586,297.94816354420345L120.04562492370606,284.0253507875433L124.04714575449627,278.05843515013805L128.04866658528647,274.0804913918679L132.05018741607668,282.0363789084082L136.05170824686687,288.0033009476232L140.05322907765708,278.05843515013805L144.05474990844726,282.0363789084082L148.05627073923748,278.05843515013805L152.05779157002766,260.1576754343028L156.05931240081787,286.0143290684881L160.06083323160806,264.13562559438276L164.06235406239827,274.0804913918679L168.06387489318848,272.091513110923L172.0653957239787,278.05843515013805L176.06691655476888,278.05843515013805L180.0684373855591,264.13562559438276L184.0699582163493,295.95919166506843L188.0714790471395,278.05843515013805L192.0729998779297,256.17973167603265L196.0745207087199,266.12459747351784L200.0760415395101,264.13562559438276L204.07756237030029,242.25692212027732L208.0790832010905,293.97021978593335L212.08060403188068,272.091513110923L216.0821248626709,286.0143290684881L220.0836456934611,282.0363789084082L224.08516652425132,286.0143290684881L228.0866873550415,240.26794383933247L232.08820818583172,274.0804913918679L236.0897290166219,276.069463271003L240.09124984741212,270.102541231788L244.0927706782023,264.13562559438276L248.09429150899254,262.1466473134379L252.09581233978273,258.1687035551677L256.09733317057294,266.12459747351784L260.0988540013631,268.11356935265286L264.10037483215336,274.0804913918679L268.10189566294355,254.19075979689757L272.10341649373373,254.19075979689757L276.1049373245239,260.1576754343028L280.10645815531416,266.12459747351784L284.10797898610434,250.2128096368176L288.1094998168945,262.1466473134379L292.1110206476847,240.26794383933247L296.11254147847495,254.19075979689757L300.11406230926514,262.1466473134379L304.1155831400553,248.22383775768256L308.11710397084556,242.25692212027732L312.11862480163575,278.05843515013805L316.12014563242593,270.102541231788L320.1216664632161,252.2017815159527L324.12318729400636,250.2128096368176L328.12470812479654,244.2458939994124L332.1262289555867,244.2458939994124L336.12774978637697,242.25692212027732L340.1292706171672,250.2128096368176L344.1307914479574,254.19075979689757L348.1323122787476,230.32307804184728L352.13383310953776,254.19075979689757L356.135353940328,236.29000008106232L360.1368747711182,246.23486587854748L364.13839560190837,248.22383775768256L368.1399164326986,258.1687035551677L372.1414372634888,258.1687035551677L376.142958094279,274.0804913918679L380.14447892506917,260.1576754343028L384.1459997558594,256.17973167603265L388.1475205866496,272.091513110923L392.1490414174398,260.1576754343028L396.15056224822996,250.2128096368176L400.1520830790202,250.2128096368176L404.1536039098104,260.1576754343028L408.15512474060057,262.1466473134379L412.15664557139075,242.25692212027732L416.158166402181,238.2789719601974L420.1596872329712,276.069463271003L424.16120806376136,248.22383775768256L428.1627288945516,228.334112564522L432.1642497253418,236.29000008106232L436.16577055613203,246.23486587854748L440.1672913869222,232.31205632279216L444.16881221771246,240.26794383933247L448.17033304850264,236.29000008106232L452.1718538792928,236.29000008106232L456.173374710083,242.25692212027732L460.17489554087325,250.2128096368176L464.17641637166344,230.32307804184728L468.1779372024536,236.29000008106232L472.1794580332438,252.2017815159527L476.18097886403405,228.334112564522L480.18249969482423,228.334112564522L484.1840205256144,240.26794383933247L488.1855413564046,244.2458939994124L492.1870621871948,224.3561560026323L496.1885830179851,248.22383775768256L500.19010384877527,264.13562559438276L504.19162467956545,248.22383775768256L508.19314551035563,258.1687035551677L512.1946663411459,228.334112564522L516.196187171936,236.29000008106232L520.1977080027262,244.2458939994124L524.1992288335164,238.2789719601974L528.2007496643067,228.334112564522L532.2022704950969,224.3561560026323L536.2037913258871,236.29000008106232L540.2053121566772,226.34513428357715L544.2068329874675,244.2458939994124L548.2083538182576,232.31205632279216L552.2098746490478,232.31205632279216L556.2113954798381,246.23486587854748L560.2129163106283,236.29000008106232L564.2144371414184,224.3561560026323L568.2159579722087,234.30102180011744L572.2174788029988,212.42232472782183L576.218999633789,232.31205632279216L580.2205204645793,232.31205632279216L584.2220412953694,224.3561560026323L588.2235621261598,234.30102180011744L592.2250829569499,214.4112902051471L596.2266037877401,218.38924676703684L600.2281246185303,254.19075979689757L604.2296454493205,216.40026848609196L608.2311662801106,238.2789719601974L612.2326871109009,242.25692212027732L616.2342079416911,212.42232472782183L620.2357287724814,218.38924676703684L624.2372496032715,218.38924676703684L628.2387704340617,244.2458939994124L632.2402912648519,210.43334644687698L636.2418120956421,232.31205632279216L640.2433329264322,228.334112564522L644.2448537572225,230.32307804184728L648.2463745880127,232.31205632279216L652.247895418803,234.30102180011744L656.2494162495931,228.334112564522L660.2509370803833,218.38924676703684L664.2524579111735,244.2458939994124L668.2539787419637,222.367190525307L672.2554995727539,240.26794383933247L676.2570204035442,230.32307804184728L680.2585412343344,204.46643721128152L684.2600620651245,214.4112902051471L688.2615828959148,212.42232472782183L692.2631037267049,212.42232472782183L696.2646245574952,226.34513428357715L700.2661453882853,210.43334644687698L704.2676662190755,210.43334644687698L708.2691870498658,214.4112902051471L712.270707880656,220.37821224436215L716.2722287114461,220.37821224436215L720.2737495422364,218.38924676703684L724.2752703730265,222.367190525307L728.2767912038167,216.40026848609196L732.2783120346069,216.40026848609196L736.2798328653972,200.4884806493918L740.2813536961874,194.52157141379635L744.2828745269776,214.4112902051471L748.2843953577677,236.29000008106232L752.285916188558,224.3561560026323L756.2874370193481,204.46643721128152L760.2889578501383,202.47745893033667L764.2904786809286,218.38924676703684L768.2919995117188,218.38924676703684L772.293520342509,214.4112902051471L776.2950411732992,208.44438096955167L780.2965620040894,194.52157141379635L784.2980828348796,236.29000008106232L788.2996036656698,240.26794383933247L792.3011244964599,198.4995151720665L796.3026453272503,210.43334644687698L800.3041661580404,240.26794383933247L804.3056869888306,194.52157141379635L808.3072078196208,196.51053689112163L812.308728650411,236.29000008106232L816.3102494812011,192.5325931328515L820.3117703119914,170.65388325693633L824.3132911427815,198.4995151720665L828.3148119735719,210.43334644687698L832.316332804362,158.72005198212588L836.3178536351522,228.334112564522L840.3193744659424,202.47745893033667L844.3208952967326,196.51053689112163L848.3224161275227,206.45540268860682L852.323936958313,212.42232472782183L856.3254577891032,216.40026848609196L860.3269786198935,184.5767056163112L864.3284994506836,210.43334644687698L868.3300202814738,204.46643721128152L872.3315411122641,198.4995151720665L876.3330619430542,200.4884806493918" fill="none"></path></g><g><path style="fill: none;" stroke="rgb(0, 119, 187)" stroke-width="2px" d="M80.03041661580403,299.93713862424346L84.03193744659424,202.47745893033667L88.03345827738444,174.63183981882602L92.03497910817465,170.65388325693633L96.03649993896485,124.90749802778066L100.03802076975505,122.91853255045535L104.03954160054525,120.92956707313004L108.04106243133545,132.86339834794055L112.04258326212566,120.92956707313004L116.04410409291586,120.92956707313004L120.04562492370606,105.01776643281033L124.04714575449627,122.91853255045535L128.04866658528647,89.1059913997297L132.05018741607668,107.00675751737475L136.05170824686687,122.91853255045535L140.05322907765708,128.88545458967036L144.05474990844726,128.88545458967036L148.05627073923748,103.028800955485L152.05779157002766,110.98468847202531L156.05931240081787,128.88545458967036L160.06083323160806,122.91853255045535L164.06235406239827,93.0839479616194L168.06387489318848,144.79724242637053L172.0653957239787,97.06187891627002L176.06691655476888,101.03983547815972L180.0684373855591,97.06187891627002L184.0699582163493,112.97367955658979L188.0714790471395,99.05087000083444L192.0729998779297,101.03983547815972L196.0745207087199,101.03983547815972L200.0760415395101,89.1059913997297L204.07756237030029,118.94060159580476L208.0790832010905,134.85237662888537L212.08060403188068,112.97367955658979L216.0821248626709,85.12803483784L220.0836456934611,120.92956707313004L224.08516652425132,136.84134210621067L228.0866873550415,108.99572299470009L232.08820818583172,87.11702592240442L236.0897290166219,114.96264503391507L240.09124984741212,122.91853255045535L244.0927706782023,89.1059913997297L248.09429150899254,107.00675751737475L252.09581233978273,116.95161051124035L256.09733317057294,91.09495687705504L260.0988540013631,87.11702592240442L264.10037483215336,132.86339834794055L268.10189566294355,114.96264503391507L272.10341649373373,108.99572299470009L276.1049373245239,97.06187891627002L280.10645815531416,124.90749802778066L284.10797898610434,132.86339834794055L288.1094998168945,110.98468847202531L292.1110206476847,118.94060159580476L296.11254147847495,103.028800955485L300.11406230926514,81.15010388318939L304.1155831400553,93.0839479616194L308.11710397084556,85.12803483784L312.11862480163575,118.94060159580476L316.12014563242593,132.86339834794055L320.1216664632161,110.98468847202531L324.12318729400636,85.12803483784L328.12470812479654,95.07291343894474L332.1262289555867,75.18318184397441L336.12774978637697,81.15010388318939L340.1292706171672,142.8082641454257L344.1307914479574,83.13906936051472L348.1323122787476,89.1059913997297L352.13383310953776,101.03983547815972L356.135353940328,136.84134210621067L360.1368747711182,101.03983547815972L364.13839560190837,122.91853255045535L368.1399164326986,79.16113840586411L372.1414372634888,112.97367955658979L376.142958094279,87.11702592240442L380.14447892506917,93.0839479616194L384.1459997558594,112.97367955658979L388.1475205866496,97.06187891627002L392.1490414174398,97.06187891627002L396.15056224822996,120.92956707313004L400.1520830790202,103.028800955485L404.1536039098104,112.97367955658979L408.15512474060057,91.09495687705504L412.15664557139075,85.12803483784L416.158166402181,132.86339834794055L420.1596872329712,79.16113840586411L424.16120806376136,108.99572299470009L428.1627288945516,71.20522528208465L432.1642497253418,105.01776643281033L436.16577055613203,116.95161051124035L440.1672913869222,67.22729432743404L444.16881221771246,77.17214732129969L448.17033304850264,103.028800955485L452.1718538792928,107.00675751737475L456.173374710083,103.028800955485L460.17489554087325,110.98468847202531L464.17641637166344,81.15010388318939L468.1779372024536,130.87443287061524L472.1794580332438,87.11702592240442L476.18097886403405,114.96264503391507L480.18249969482423,61.26037228821906L484.1840205256144,97.06187891627002L488.1855413564046,103.028800955485L492.1870621871948,91.09495687705504L496.1885830179851,108.99572299470009L500.19010384877527,144.79724242637053L504.19162467956545,105.01776643281033L508.19314551035563,77.17214732129969L512.1946663411459,87.11702592240442L516.196187171936,99.05087000083444L520.1977080027262,67.22729432743404L524.1992288335164,107.00675751737475L528.2007496643067,99.05087000083444L532.2022704950969,65.23832885010881L536.2037913258871,97.06187891627002L540.2053121566772,67.22729432743404L544.2068329874675,91.09495687705504L548.2083538182576,73.19421636664913L552.2098746490478,79.16113840586411L556.2113954798381,126.89648911234505L560.2129163106283,79.16113840586411L564.2144371414184,97.06187891627002L568.2159579722087,91.09495687705504L572.2174788029988,99.05087000083444L576.218999633789,65.23832885010881L580.2205204645793,101.03983547815972L584.2220412953694,130.87443287061524L588.2235621261598,83.13906936051472L592.2250829569499,136.84134210621067L596.2266037877401,112.97367955658979L600.2281246185303,116.95161051124035L604.2296454493205,71.20522528208465L608.2311662801106,99.05087000083444L612.2326871109009,99.05087000083444L616.2342079416911,91.09495687705504L620.2357287724814,77.17214732129969L624.2372496032715,91.09495687705504L628.2387704340617,95.07291343894474L632.2402912648519,99.05087000083444L636.2418120956421,93.0839479616194L640.2433329264322,126.89648911234505L644.2448537572225,120.92956707313004L648.2463745880127,93.0839479616194L652.247895418803,71.20522528208465L656.2494162495931,73.19421636664913L660.2509370803833,89.1059913997297L664.2524579111735,103.028800955485L668.2539787419637,112.97367955658979L672.2554995727539,93.0839479616194L676.2570204035442,134.85237662888537L680.2585412343344,99.05087000083444L684.2600620651245,120.92956707313004L688.2615828959148,91.09495687705504L692.2631037267049,120.92956707313004L696.2646245574952,75.18318184397441L700.2661453882853,110.98468847202531L704.2676662190755,81.15010388318939L708.2691870498658,103.028800955485L712.270707880656,81.15010388318939L716.2722287114461,95.07291343894474L720.2737495422364,132.86339834794055L724.2752703730265,91.09495687705504L728.2767912038167,81.15010388318939L732.2783120346069,97.06187891627002L736.2798328653972,79.16113840586411L740.2813536961874,51.315493687114326L744.2828745269776,120.92956707313004L748.2843953577677,103.028800955485L752.285916188558,120.92956707313004L756.2874370193481,75.18318184397441L760.2889578501383,116.95161051124035L764.2904786809286,93.0839479616194L768.2919995117188,116.95161051124035L772.293520342509,120.92956707313004L776.2950411732992,81.15010388318939L780.2965620040894,107.00675751737475L784.2980828348796,93.0839479616194L788.2996036656698,101.03983547815972L792.3011244964599,59.27140681089378L796.3026453272503,112.97367955658979L800.3041661580404,75.18318184397441L804.3056869888306,99.05087000083444L808.3072078196208,65.23832885010881L812.308728650411,97.06187891627002L816.3102494812011,110.98468847202531L820.3117703119914,120.92956707313004L824.3132911427815,87.11702592240442L828.3148119735719,91.09495687705504L832.316332804362,112.97367955658979L836.3178536351522,85.12803483784L840.3193744659424,73.19421636664913L844.3208952967326,91.09495687705504L848.3224161275227,103.028800955485L852.323936958313,91.09495687705504L856.3254577891032,134.85237662888537L860.3269786198935,95.07291343894474L864.3284994506836,107.00675751737475L868.3300202814738,59.27140681089378L872.3315411122641,107.00675751737475L876.3330619430542,122.91853255045535" fill="none"></path></g><g><path style="fill: none;" stroke="rgb(238, 51, 119)" stroke-width="2px" d="M80.03041661580403,272.091513110923L84.03193744659424,258.1687035551677L88.03345827738444,242.25692212027732L92.03497910817465,200.4884806493918L96.03649993896485,180.5987490544215L100.03802076975505,156.731073701181L104.03954160054525,138.83032038715555L108.04106243133545,87.11702592240442L112.04258326212566,105.01776643281033L116.04410409291586,93.0839479616194L120.04562492370606,99.05087000083444L124.04714575449627,110.98468847202531L128.04866658528647,112.97367955658979L132.05018741607668,103.028800955485L136.05170824686687,108.99572299470009L140.05322907765708,112.97367955658979L144.05474990844726,138.83032038715555L148.05627073923748,105.01776643281033L152.05779157002766,69.21625980475937L156.05931240081787,122.91853255045535L160.06083323160806,91.09495687705504L164.06235406239827,87.11702592240442L168.06387489318848,105.01776643281033L172.0653957239787,97.06187891627002L176.06691655476888,91.09495687705504L180.0684373855591,128.88545458967036L184.0699582163493,118.94060159580476L188.0714790471395,75.18318184397441L192.0729998779297,105.01776643281033L196.0745207087199,105.01776643281033L200.0760415395101,73.19421636664913L204.07756237030029,95.07291343894474L208.0790832010905,99.05087000083444L212.08060403188068,97.06187891627002L216.0821248626709,83.13906936051472L220.0836456934611,85.12803483784L224.08516652425132,53.304484771678744L228.0866873550415,108.99572299470009L232.08820818583172,105.01776643281033L236.0897290166219,122.91853255045535L240.09124984741212,95.07291343894474L244.0927706782023,99.05087000083444L248.09429150899254,105.01776643281033L252.09581233978273,63.2493377655444L256.09733317057294,107.00675751737475L260.0988540013631,110.98468847202531L264.10037483215336,103.028800955485L268.10189566294355,57.28241572632936L272.10341649373373,65.23832885010881L276.1049373245239,95.07291343894474L280.10645815531416,89.1059913997297L284.10797898610434,122.91853255045535L288.1094998168945,81.15010388318939L292.1110206476847,97.06187891627002L296.11254147847495,83.13906936051472L300.11406230926514,79.16113840586411L304.1155831400553,114.96264503391507L308.11710397084556,83.13906936051472L312.11862480163575,103.028800955485L316.12014563242593,91.09495687705504L320.1216664632161,95.07291343894474L324.12318729400636,118.94060159580476L328.12470812479654,65.23832885010881L332.1262289555867,85.12803483784L336.12774978637697,89.1059913997297L340.1292706171672,91.09495687705504L344.1307914479574,97.06187891627002L348.1323122787476,101.03983547815972L352.13383310953776,69.21625980475937L356.135353940328,105.01776643281033L360.1368747711182,95.07291343894474L364.13839560190837,85.12803483784L368.1399164326986,89.1059913997297L372.1414372634888,122.91853255045535L376.142958094279,63.2493377655444L380.14447892506917,59.27140681089378L384.1459997558594,97.06187891627002L388.1475205866496,79.16113840586411L392.1490414174398,93.0839479616194L396.15056224822996,105.01776643281033L400.1520830790202,79.16113840586411L404.1536039098104,49.326528209789046L408.15512474060057,114.96264503391507L412.15664557139075,93.0839479616194L416.158166402181,97.06187891627002L420.1596872329712,83.13906936051472L424.16120806376136,75.18318184397441L428.1627288945516,71.20522528208465L432.1642497253418,91.09495687705504" fill="none"></path></g><g><path style="fill: none;" stroke="rgb(204, 51, 17)" stroke-width="2px" d="M80.03041661580403,319.82686861876135L84.03193744659424,297.94816354420345L88.03345827738444,289.99227282675827L92.03497910817465,268.11356935265286L96.03649993896485,266.12459747351784L100.03802076975505,266.12459747351784L104.03954160054525,280.04740702927313L108.04106243133545,256.17973167603265L112.04258326212566,248.22383775768256L116.04410409291586,232.31205632279216L120.04562492370606,268.11356935265286L124.04714575449627,236.29000008106232L128.04866658528647,234.30102180011744L132.05018741607668,224.3561560026323L136.05170824686687,242.25692212027732L140.05322907765708,218.38924676703684L144.05474990844726,206.45540268860682L148.05627073923748,232.31205632279216L152.05779157002766,216.40026848609196L156.05931240081787,188.55464937458137L160.06083323160806,204.46643721128152L164.06235406239827,208.44438096955167L168.06387489318848,178.60978357709618L172.0653957239787,210.43334644687698L176.06691655476888,166.67593949866614L180.0684373855591,184.5767056163112L184.0699582163493,160.70901745945116L188.0714790471395,176.62080529615133L192.0729998779297,150.7641644655856L196.0745207087199,136.84134210621067L200.0760415395101,162.697995740396L204.07756237030029,168.66491777961102L208.0790832010905,140.8192986681004L212.08060403188068,158.72005198212588L216.0821248626709,172.64286153788115L220.0836456934611,158.72005198212588L224.08516652425132,154.74210822385572L228.0866873550415,146.78620790369584L232.08820818583172,158.72005198212588L236.0897290166219,130.87443287061524L240.09124984741212,140.8192986681004L244.0927706782023,154.74210822385572L248.09429150899254,132.86339834794055L252.09581233978273,128.88545458967036L256.09733317057294,110.98468847202531L260.0988540013631,105.01776643281033L264.10037483215336,101.03983547815972L268.10189566294355,130.87443287061524L272.10341649373373,136.84134210621067L276.1049373245239,107.00675751737475L280.10645815531416,138.83032038715555L284.10797898610434,85.12803483784L288.1094998168945,136.84134210621067L292.1110206476847,110.98468847202531L296.11254147847495,130.87443287061524L300.11406230926514,107.00675751737475L304.1155831400553,103.028800955485L308.11710397084556,136.84134210621067L312.11862480163575,110.98468847202531L316.12014563242593,114.96264503391507L320.1216664632161,97.06187891627002L324.12318729400636,124.90749802778066L328.12470812479654,112.97367955658979L332.1262289555867,85.12803483784L336.12774978637697,69.21625980475937L340.1292706171672,126.89648911234505L344.1307914479574,107.00675751737475L348.1323122787476,110.98468847202531L352.13383310953776,103.028800955485L356.135353940328,87.11702592240442L360.1368747711182,71.20522528208465L364.13839560190837,67.22729432743404L368.1399164326986,126.89648911234505L372.1414372634888,63.2493377655444L376.142958094279,69.21625980475937L380.14447892506917,83.13906936051472L384.1459997558594,120.92956707313004L388.1475205866496,95.07291343894474L392.1490414174398,107.00675751737475L396.15056224822996,71.20522528208465L400.1520830790202,85.12803483784L404.1536039098104,93.0839479616194L408.15512474060057,101.03983547815972L412.15664557139075,154.74210822385572L416.158166402181,55.29345024900408L420.1596872329712,73.19421636664913L424.16120806376136,101.03983547815972L428.1627288945516,87.11702592240442L432.1642497253418,93.0839479616194L436.16577055613203,118.94060159580476L440.1672913869222,85.12803483784L444.16881221771246,77.17214732129969L448.17033304850264,122.91853255045535L452.1718538792928,49.326528209789046L456.173374710083,71.20522528208465L460.17489554087325,93.0839479616194L464.17641637166344,97.06187891627002L468.1779372024536,97.06187891627002L472.1794580332438,122.91853255045535L476.18097886403405,93.0839479616194L480.18249969482423,53.304484771678744L484.1840205256144,99.05087000083444L488.1855413564046,95.07291343894474L492.1870621871948,91.09495687705504L496.1885830179851,95.07291343894474L500.19010384877527,116.95161051124035L504.19162467956545,69.21625980475937L508.19314551035563,85.12803483784L512.1946663411459,95.07291343894474L516.196187171936,71.20522528208465L520.1977080027262,79.16113840586411L524.1992288335164,103.028800955485L528.2007496643067,116.95161051124035L532.2022704950969,112.97367955658979L536.2037913258871,77.17214732129969L540.2053121566772,83.13906936051472L544.2068329874675,89.1059913997297L548.2083538182576,65.23832885010881L552.2098746490478,108.99572299470009L556.2113954798381,112.97367955658979L560.2129163106283,69.21625980475937L564.2144371414184,105.01776643281033L568.2159579722087,103.028800955485L572.2174788029988,118.94060159580476L576.218999633789,77.17214732129969L580.2205204645793,114.96264503391507L584.2220412953694,81.15010388318939L588.2235621261598,120.92956707313004L592.2250829569499,97.06187891627002L596.2266037877401,89.1059913997297L600.2281246185303,116.95161051124035L604.2296454493205,89.1059913997297L608.2311662801106,79.16113840586411L612.2326871109009,81.15010388318939L616.2342079416911,69.21625980475937L620.2357287724814,110.98468847202531L624.2372496032715,57.28241572632936L628.2387704340617,63.2493377655444L632.2402912648519,75.18318184397441L636.2418120956421,89.1059913997297L640.2433329264322,67.22729432743404L644.2448537572225,101.03983547815972L648.2463745880127,69.21625980475937L652.247895418803,79.16113840586411L656.2494162495931,93.0839479616194L660.2509370803833,75.18318184397441L664.2524579111735,63.2493377655444L668.2539787419637,85.12803483784L672.2554995727539,108.99572299470009L676.2570204035442,85.12803483784L680.2585412343344,75.18318184397441L684.2600620651245,67.22729432743404L688.2615828959148,99.05087000083444L692.2631037267049,81.15010388318939L696.2646245574952,51.315493687114326L700.2661453882853,128.88545458967036L704.2676662190755,71.20522528208465L708.2691870498658,73.19421636664913L712.270707880656,73.19421636664913L716.2722287114461,61.26037228821906L720.2737495422364,77.17214732129969L724.2752703730265,55.29345024900408L728.2767912038167,110.98468847202531L732.2783120346069,128.88545458967036L736.2798328653972,71.20522528208465L740.2813536961874,122.91853255045535L744.2828745269776,107.00675751737475L748.2843953577677,93.0839479616194L752.285916188558,91.09495687705504L756.2874370193481,79.16113840586411L760.2889578501383,110.98468847202531L764.2904786809286,95.07291343894474L768.2919995117188,110.98468847202531L772.293520342509,65.23832885010881L776.2950411732992,93.0839479616194L780.2965620040894,75.18318184397441L784.2980828348796,67.22729432743404L788.2996036656698,77.17214732129969L792.3011244964599,93.0839479616194L796.3026453272503,79.16113840586411L800.3041661580404,79.16113840586411L804.3056869888306,99.05087000083444L808.3072078196208,65.23832885010881L812.308728650411,71.20522528208465L816.3102494812011,75.18318184397441L820.3117703119914,79.16113840586411L824.3132911427815,99.05087000083444L828.3148119735719,65.23832885010881L832.316332804362,55.29345024900408L836.3178536351522,67.22729432743404L840.3193744659424,53.304484771678744L844.3208952967326,122.91853255045535L848.3224161275227,51.315493687114326L852.323936958313,95.07291343894474L856.3254577891032,79.16113840586411L860.3269786198935,83.13906936051472L864.3284994506836,116.95161051124035L868.3300202814738,51.315493687114326L872.3315411122641,85.12803483784L876.3330619430542,95.07291343894474" fill="none"></path></g></g></g></g></g></g><g transform="translate(61, 378)" clip-path="url(#clip_1)"><clipPath id="clip_1"><rect width="960" height="21"></rect></clipPath><g><g><line x1="0" y1="0" x2="0" y2="5" style="visibility: inherit;" fill="rgb(0, 0, 0)" stroke="rgb(204, 204, 204)" stroke-width="1px"></line><line x1="80.03041661580403" y1="0" x2="80.03041661580403" y2="5" style="visibility: inherit;" fill="rgb(0, 0, 0)" stroke="rgb(204, 204, 204)" stroke-width="1px"></line><line x1="160.06083323160806" y1="0" x2="160.06083323160806" y2="5" style="visibility: inherit;" fill="rgb(0, 0, 0)" stroke="rgb(204, 204, 204)" stroke-width="1px"></line><line x1="240.09124984741212" y1="0" x2="240.09124984741212" y2="5" style="visibility: inherit;" fill="rgb(0, 0, 0)" stroke="rgb(204, 204, 204)" stroke-width="1px"></line><line x1="320.1216664632161" y1="0" x2="320.1216664632161" y2="5" style="visibility: inherit;" fill="rgb(0, 0, 0)" stroke="rgb(204, 204, 204)" stroke-width="1px"></line><line x1="400.1520830790202" y1="0" x2="400.1520830790202" y2="5" style="visibility: inherit;" fill="rgb(0, 0, 0)" stroke="rgb(204, 204, 204)" stroke-width="1px"></line><line x1="480.18249969482423" y1="0" x2="480.18249969482423" y2="5" style="visibility: inherit;" fill="rgb(0, 0, 0)" stroke="rgb(204, 204, 204)" stroke-width="1px"></line><line x1="560.2129163106283" y1="0" x2="560.2129163106283" y2="5" style="visibility: inherit;" fill="rgb(0, 0, 0)" stroke="rgb(204, 204, 204)" stroke-width="1px"></line><line x1="640.2433329264322" y1="0" x2="640.2433329264322" y2="5" style="visibility: inherit;" fill="rgb(0, 0, 0)" stroke="rgb(204, 204, 204)" stroke-width="1px"></line><line x1="720.2737495422364" y1="0" x2="720.2737495422364" y2="5" style="visibility: inherit;" fill="rgb(0, 0, 0)" stroke="rgb(204, 204, 204)" stroke-width="1px"></line><line x1="800.3041661580404" y1="0" x2="800.3041661580404" y2="5" style="visibility: inherit;" fill="rgb(0, 0, 0)" stroke="rgb(204, 204, 204)" stroke-width="1px"></line><line x1="880.3345827738444" y1="0" x2="880.3345827738444" y2="5" style="visibility: inherit;" fill="rgb(0, 0, 0)" stroke="rgb(204, 204, 204)" stroke-width="1px"></line><line x1="960.3649993896485" y1="0" x2="960.3649993896485" y2="5" style="visibility: inherit;" fill="rgb(0, 0, 0)" stroke="rgb(204, 204, 204)" stroke-width="1px"></line></g><g transform="translate(0, 8)"><text style="text-anchor: middle; visibility: hidden; font-family: &quot;Helvetica Neue&quot;, sans-serif; font-size: 12px; font-weight: 200;" x="0" y="0" dx="0em" dy="0.95em" fill="rgb(50, 49, 63)" stroke="none" stroke-width="1px">-20</text><text style="text-anchor: middle; visibility: inherit; font-family: &quot;Helvetica Neue&quot;, sans-serif; font-size: 12px; font-weight: 200;" x="80.03041661580403" y="0" dx="0em" dy="0.95em" fill="rgb(50, 49, 63)" stroke="none" stroke-width="1px">0</text><text style="text-anchor: middle; visibility: inherit; font-family: &quot;Helvetica Neue&quot;, sans-serif; font-size: 12px; font-weight: 200;" x="160.06083323160806" y="0" dx="0em" dy="0.95em" fill="rgb(50, 49, 63)" stroke="none" stroke-width="1px">20</text><text style="text-anchor: middle; visibility: inherit; font-family: &quot;Helvetica Neue&quot;, sans-serif; font-size: 12px; font-weight: 200;" x="240.09124984741212" y="0" dx="0em" dy="0.95em" fill="rgb(50, 49, 63)" stroke="none" stroke-width="1px">40</text><text style="text-anchor: middle; visibility: inherit; font-family: &quot;Helvetica Neue&quot;, sans-serif; font-size: 12px; font-weight: 200;" x="320.1216664632161" y="0" dx="0em" dy="0.95em" fill="rgb(50, 49, 63)" stroke="none" stroke-width="1px">60</text><text style="text-anchor: middle; visibility: inherit; font-family: &quot;Helvetica Neue&quot;, sans-serif; font-size: 12px; font-weight: 200;" x="400.1520830790202" y="0" dx="0em" dy="0.95em" fill="rgb(50, 49, 63)" stroke="none" stroke-width="1px">80</text><text style="text-anchor: middle; visibility: inherit; font-family: &quot;Helvetica Neue&quot;, sans-serif; font-size: 12px; font-weight: 200;" x="480.18249969482423" y="0" dx="0em" dy="0.95em" fill="rgb(50, 49, 63)" stroke="none" stroke-width="1px">100</text><text style="text-anchor: middle; visibility: inherit; font-family: &quot;Helvetica Neue&quot;, sans-serif; font-size: 12px; font-weight: 200;" x="560.2129163106283" y="0" dx="0em" dy="0.95em" fill="rgb(50, 49, 63)" stroke="none" stroke-width="1px">120</text><text style="text-anchor: middle; visibility: inherit; font-family: &quot;Helvetica Neue&quot;, sans-serif; font-size: 12px; font-weight: 200;" x="640.2433329264322" y="0" dx="0em" dy="0.95em" fill="rgb(50, 49, 63)" stroke="none" stroke-width="1px">140</text><text style="text-anchor: middle; visibility: inherit; font-family: &quot;Helvetica Neue&quot;, sans-serif; font-size: 12px; font-weight: 200;" x="720.2737495422364" y="0" dx="0em" dy="0.95em" fill="rgb(50, 49, 63)" stroke="none" stroke-width="1px">160</text><text style="text-anchor: middle; visibility: inherit; font-family: &quot;Helvetica Neue&quot;, sans-serif; font-size: 12px; font-weight: 200;" x="800.3041661580404" y="0" dx="0em" dy="0.95em" fill="rgb(50, 49, 63)" stroke="none" stroke-width="1px">180</text><text style="text-anchor: middle; visibility: inherit; font-family: &quot;Helvetica Neue&quot;, sans-serif; font-size: 12px; font-weight: 200;" x="880.3345827738444" y="0" dx="0em" dy="0.95em" fill="rgb(50, 49, 63)" stroke="none" stroke-width="1px">200</text><text style="text-anchor: middle; visibility: hidden; font-family: &quot;Helvetica Neue&quot;, sans-serif; font-size: 12px; font-weight: 200;" x="960.3649993896485" y="0" dx="0em" dy="0.95em" fill="rgb(50, 49, 63)" stroke="none" stroke-width="1px">220</text></g><line x1="0" y1="0" x2="960.3649993896485" y2="0" fill="rgb(0, 0, 0)" stroke="rgb(204, 204, 204)" stroke-width="1px"></line></g></g></g></g></svg>