<svg viewBox="0 0 1022.0999755859375 400" xmlns="http://www.w3.org/2000/svg"><g><g><g><g><g><line x1="41.04100036621094" y1="378.0640001296997" x2="36.04100036621094" y2="378.0640001296997" style="visibility: inherit;" fill="rgb(0, 0, 0)" stroke="rgb(204, 204, 204)" stroke-width="1px"></line><line x1="41.04100036621094" y1="348.9821539658767" x2="36.04100036621094" y2="348.9821539658767" style="visibility: inherit;" fill="rgb(0, 0, 0)" stroke="rgb(204, 204, 204)" stroke-width="1px"></line><line x1="41.04100036621094" y1="319.9003078020536" x2="36.04100036621094" y2="319.9003078020536" style="visibility: inherit;" fill="rgb(0, 0, 0)" stroke="rgb(204, 204, 204)" stroke-width="1px"></line><line x1="41.04100036621094" y1="290.8184616382306" x2="36.04100036621094" y2="290.8184616382306" style="visibility: inherit;" fill="rgb(0, 0, 0)" stroke="rgb(204, 204, 204)" stroke-width="1px"></line><line x1="41.04100036621094" y1="261.7366154744075" x2="36.04100036621094" y2="261.7366154744075" style="visibility: inherit;" fill="rgb(0, 0, 0)" stroke="rgb(204, 204, 204)" stroke-width="1px"></line><line x1="41.04100036621094" y1="232.6547693105844" x2="36.04100036621094" y2="232.6547693105844" style="visibility: inherit;" fill="rgb(0, 0, 0)" stroke="rgb(204, 204, 204)" stroke-width="1px"></line><line x1="41.04100036621094" y1="203.57292314676133" x2="36.04100036621094" y2="203.57292314676133" style="visibility: inherit;" fill="rgb(0, 0, 0)" stroke="rgb(204, 204, 204)" stroke-width="1px"></line><line x1="41.04100036621094" y1="174.49107698293838" x2="36.04100036621094" y2="174.49107698293838" style="visibility: inherit;" fill="rgb(0, 0, 0)" stroke="rgb(204, 204, 204)" stroke-width="1px"></line><line x1="41.04100036621094" y1="145.4092308191153" x2="36.04100036621094" y2="145.4092308191153" style="visibility: inherit;" fill="rgb(0, 0, 0)" stroke="rgb(204, 204, 204)" stroke-width="1px"></line><line x1="41.04100036621094" y1="116.32738465529224" x2="36.04100036621094" y2="116.32738465529224" style="visibility: inherit;" fill="rgb(0, 0, 0)" stroke="rgb(204, 204, 204)" stroke-width="1px"></line><line x1="41.04100036621094" y1="87.24553849146912" x2="36.04100036621094" y2="87.24553849146912" style="visibility: inherit;" fill="rgb(0, 0, 0)" stroke="rgb(204, 204, 204)" stroke-width="1px"></line><line x1="41.04100036621094" y1="58.163692327646004" x2="36.04100036621094" y2="58.163692327646004" style="visibility: inherit;" fill="rgb(0, 0, 0)" stroke="rgb(204, 204, 204)" stroke-width="1px"></line><line x1="41.04100036621094" y1="29.08184616382306" x2="36.04100036621094" y2="29.08184616382306" style="visibility: inherit;" fill="rgb(0, 0, 0)" stroke="rgb(204, 204, 204)" stroke-width="1px"></line><line x1="41.04100036621094" y1="0" x2="36.04100036621094" y2="0" style="visibility: inherit;" fill="rgb(0, 0, 0)" stroke="rgb(204, 204, 204)" stroke-width="1px"></line></g><g transform="translate(31.041000366210938, 0)"><text style="text-anchor: end; visibility: hidden; font-family: &quot;Helvetica Neue&quot;, sans-serif; font-size: 12px; font-weight: 200;" x="0" y="378.0640001296997" dx="0em" dy="0.3em" fill="rgb(50, 49, 63)" stroke="none" stroke-width="1px">3.2</text><text style="text-anchor: end; visibility: inherit; font-family: &quot;Helvetica Neue&quot;, sans-serif; font-size: 12px; font-weight: 200;" x="0" y="348.9821539658767" dx="0em" dy="0.3em" fill="rgb(50, 49, 63)" stroke="none" stroke-width="1px">3.4</text><text style="text-anchor: end; visibility: inherit; font-family: &quot;Helvetica Neue&quot;, sans-serif; font-size: 12px; font-weight: 200;" x="0" y="319.9003078020536" dx="0em" dy="0.3em" fill="rgb(50, 49, 63)" stroke="none" stroke-width="1px">3.6</text><text style="text-anchor: end; visibility: inherit; font-family: &quot;Helvetica Neue&quot;, sans-serif; font-size: 12px; font-weight: 200;" x="0" y="290.8184616382306" dx="0em" dy="0.3em" fill="rgb(50, 49, 63)" stroke="none" stroke-width="1px">3.8</text><text style="text-anchor: end; visibility: inherit; font-family: &quot;Helvetica Neue&quot;, sans-serif; font-size: 12px; font-weight: 200;" x="0" y="261.7366154744075" dx="0em" dy="0.3em" fill="rgb(50, 49, 63)" stroke="none" stroke-width="1px">4</text><text style="text-anchor: end; visibility: inherit; font-family: &quot;Helvetica Neue&quot;, sans-serif; font-size: 12px; font-weight: 200;" x="0" y="232.6547693105844" dx="0em" dy="0.3em" fill="rgb(50, 49, 63)" stroke="none" stroke-width="1px">4.2</text><text style="text-anchor: end; visibility: inherit; font-family: &quot;Helvetica Neue&quot;, sans-serif; font-size: 12px; font-weight: 200;" x="0" y="203.57292314676133" dx="0em" dy="0.3em" fill="rgb(50, 49, 63)" stroke="none" stroke-width="1px">4.4</text><text style="text-anchor: end; visibility: inherit; font-family: &quot;Helvetica Neue&quot;, sans-serif; font-size: 12px; font-weight: 200;" x="0" y="174.49107698293838" dx="0em" dy="0.3em" fill="rgb(50, 49, 63)" stroke="none" stroke-width="1px">4.6</text><text style="text-anchor: end; visibility: inherit; font-family: &quot;Helvetica Neue&quot;, sans-serif; font-size: 12px; font-weight: 200;" x="0" y="145.4092308191153" dx="0em" dy="0.3em" fill="rgb(50, 49, 63)" stroke="none" stroke-width="1px">4.8</text><text style="text-anchor: end; visibility: inherit; font-family: &quot;Helvetica Neue&quot;, sans-serif; font-size: 12px; font-weight: 200;" x="0" y="116.32738465529224" dx="0em" dy="0.3em" fill="rgb(50, 49, 63)" stroke="none" stroke-width="1px">5</text><text style="text-anchor: end; visibility: inherit; font-family: &quot;Helvetica Neue&quot;, sans-serif; font-size: 12px; font-weight: 200;" x="0" y="87.24553849146912" dx="0em" dy="0.3em" fill="rgb(50, 49, 63)" stroke="none" stroke-width="1px">5.2</text><text style="text-anchor: end; visibility: inherit; font-family: &quot;Helvetica Neue&quot;, sans-serif; font-size: 12px; font-weight: 200;" x="0" y="58.163692327646004" dx="0em" dy="0.3em" fill="rgb(50, 49, 63)" stroke="none" stroke-width="1px">5.4</text><text style="text-anchor: end; visibility: inherit; font-family: &quot;Helvetica Neue&quot;, sans-serif; font-size: 12px; font-weight: 200;" x="0" y="29.08184616382306" dx="0em" dy="0.3em" fill="rgb(50, 49, 63)" stroke="none" stroke-width="1px">5.6</text><text style="text-anchor: end; visibility: hidden; font-family: &quot;Helvetica Neue&quot;, sans-serif; font-size: 12px; font-weight: 200;" x="0" y="0" dx="0em" dy="0.3em" fill="rgb(50, 49, 63)" stroke="none" stroke-width="1px">5.8</text></g><line x1="41.04100036621094" y1="0" x2="41.04100036621094" y2="378.0640001296997" fill="rgb(0, 0, 0)" stroke="rgb(204, 204, 204)" stroke-width="1px"></line></g></g><g transform="translate(41, 0)" clip-path="url(#clip_0)"><clipPath id="clip_0"><rect width="981" height="378"></rect></clipPath><g><g><g><line x1="0" y1="0" x2="0" y2="378.0640001296997" fill="rgb(0, 0, 0)" stroke="rgb(60, 60, 60)" stroke-width="1px" opacity="0.25"></line><line x1="81.75491663614909" y1="0" x2="81.75491663614909" y2="378.0640001296997" fill="rgb(0, 0, 0)" stroke="rgb(60, 60, 60)" stroke-width="1px" opacity="0.25"></line><line x1="163.50983327229818" y1="0" x2="163.50983327229818" y2="378.0640001296997" fill="rgb(0, 0, 0)" stroke="rgb(60, 60, 60)" stroke-width="1px" opacity="0.25"></line><line x1="245.26474990844727" y1="0" x2="245.26474990844727" y2="378.0640001296997" fill="rgb(0, 0, 0)" stroke="rgb(60, 60, 60)" stroke-width="1px" opacity="0.25"></line><line x1="327.01966654459636" y1="0" x2="327.01966654459636" y2="378.0640001296997" fill="rgb(0, 0, 0)" stroke="rgb(60, 60, 60)" stroke-width="1px" opacity="0.25"></line><line x1="408.7745831807455" y1="0" x2="408.7745831807455" y2="378.0640001296997" fill="rgb(0, 0, 0)" stroke="rgb(60, 60, 60)" stroke-width="1px" opacity="0.25"></line><line x1="490.52949981689454" y1="0" x2="490.52949981689454" y2="378.0640001296997" fill="rgb(0, 0, 0)" stroke="rgb(60, 60, 60)" stroke-width="1px" opacity="0.25"></line><line x1="572.2844164530437" y1="0" x2="572.2844164530437" y2="378.0640001296997" fill="rgb(0, 0, 0)" stroke="rgb(60, 60, 60)" stroke-width="1px" opacity="0.25"></line><line x1="654.0393330891927" y1="0" x2="654.0393330891927" y2="378.0640001296997" fill="rgb(0, 0, 0)" stroke="rgb(60, 60, 60)" stroke-width="1px" opacity="0.25"></line><line x1="735.7942497253418" y1="0" x2="735.7942497253418" y2="378.0640001296997" fill="rgb(0, 0, 0)" stroke="rgb(60, 60, 60)" stroke-width="1px" opacity="0.25"></line><line x1="817.549166361491" y1="0" x2="817.549166361491" y2="378.0640001296997" fill="rgb(0, 0, 0)" stroke="rgb(60, 60, 60)" stroke-width="1px" opacity="0.25"></line><line x1="899.30408299764" y1="0" x2="899.30408299764" y2="378.0640001296997" fill="rgb(0, 0, 0)" stroke="rgb(60, 60, 60)" stroke-width="1px" opacity="0.25"></line><line x1="981.0589996337891" y1="0" x2="981.0589996337891" y2="378.0640001296997" fill="rgb(0, 0, 0)" stroke="rgb(60, 60, 60)" stroke-width="1px" opacity="0.25"></line></g><g><line x1="0" y1="378.0640001296997" x2="981.0589996337891" y2="378.0640001296997" fill="rgb(0, 0, 0)" stroke="rgb(60, 60, 60)" stroke-width="1px" opacity="0.25"></line><line x1="0" y1="348.9821539658767" x2="981.0589996337891" y2="348.9821539658767" fill="rgb(0, 0, 0)" stroke="rgb(60, 60, 60)" stroke-width="1px" opacity="0.25"></line><line x1="0" y1="319.9003078020536" x2="981.0589996337891" y2="319.9003078020536" fill="rgb(0, 0, 0)" stroke="rgb(60, 60, 60)" stroke-width="1px" opacity="0.25"></line><line x1="0" y1="290.8184616382306" x2="981.0589996337891" y2="290.8184616382306" fill="rgb(0, 0, 0)" stroke="rgb(60, 60, 60)" stroke-width="1px" opacity="0.25"></line><line x1="0" y1="261.7366154744075" x2="981.0589996337891" y2="261.7366154744075" fill="rgb(0, 0, 0)" stroke="rgb(60, 60, 60)" stroke-width="1px" opacity="0.25"></line><line x1="0" y1="232.6547693105844" x2="981.0589996337891" y2="232.6547693105844" fill="rgb(0, 0, 0)" stroke="rgb(60, 60, 60)" stroke-width="1px" opacity="0.25"></line><line x1="0" y1="203.57292314676133" x2="981.0589996337891" y2="203.57292314676133" fill="rgb(0, 0, 0)" stroke="rgb(60, 60, 60)" stroke-width="1px" opacity="0.25"></line><line x1="0" y1="174.49107698293838" x2="981.0589996337891" y2="174.49107698293838" fill="rgb(0, 0, 0)" stroke="rgb(60, 60, 60)" stroke-width="1px" opacity="0.25"></line><line x1="0" y1="145.4092308191153" x2="981.0589996337891" y2="145.4092308191153" fill="rgb(0, 0, 0)" stroke="rgb(60, 60, 60)" stroke-width="1px" opacity="0.25"></line><line x1="0" y1="116.32738465529224" x2="981.0589996337891" y2="116.32738465529224" fill="rgb(0, 0, 0)" stroke="rgb(60, 60, 60)" stroke-width="1px" opacity="0.25"></line><line x1="0" y1="87.24553849146912" x2="981.0589996337891" y2="87.24553849146912" fill="rgb(0, 0, 0)" stroke="rgb(60, 60, 60)" stroke-width="1px" opacity="0.25"></line><line x1="0" y1="58.163692327646004" x2="981.0589996337891" y2="58.163692327646004" fill="rgb(0, 0, 0)" stroke="rgb(60, 60, 60)" stroke-width="1px" opacity="0.25"></line><line x1="0" y1="29.08184616382306" x2="981.0589996337891" y2="29.08184616382306" fill="rgb(0, 0, 0)" stroke="rgb(60, 60, 60)" stroke-width="1px" opacity="0.25"></line><line x1="0" y1="0" x2="981.0589996337891" y2="0" fill="rgb(0, 0, 0)" stroke="rgb(60, 60, 60)" stroke-width="1px" opacity="0.25"></line></g></g></g><g><g><line x1="0" y1="843.3735387508686" x2="981.0589996337891" y2="843.3735387508686" fill="rgb(0, 0, 0)" stroke="rgb(153, 153, 153)" stroke-width="1.5px"></line></g></g><g><g><line x1="81.75491663614909" y1="0" x2="81.75491663614909" y2="378.0640001296997" fill="rgb(0, 0, 0)" stroke="rgb(153, 153, 153)" stroke-width="1.5px"></line></g></g><g><g><g><g><g><path style="fill: none;" stroke="rgb(0, 153, 136)" stroke-width="2px" d="M81.75491663614909,69.91954749936144L85.84266246795654,71.41162616912794L89.930408299764,72.89697105959868L94.01815413157146,74.30506227458437L98.10589996337892,76.30469125338351L102.19364579518637,78.03370621384215L106.28139162699382,80.01193130645873L110.36913745880128,81.87234516826123L114.45688329060873,84.00375790979842L118.54462912241618,85.87051022192315L122.63237495422364,87.94533733140241L126.7201207860311,90.01189324905465L130.80786661783856,91.96287782620033L134.89561244964602,94.17619732738854L138.98335828145346,96.30745526659274L143.07110411326093,98.4980727261256L147.15884994506837,100.34453131729634L151.24659577687584,102.35569762592053L155.33434160868327,104.42309048424426L159.42208744049074,106.48738774676326L163.50983327229818,108.50677513268403L167.59757910410565,110.19996931501993L171.6853249359131,112.32437719829477L175.77307076772055,114.07313659130637L179.860816599528,115.8980706949356L183.94856243133546,117.49155829740988L188.03630826314293,119.40801643433548L192.12405409495037,121.0965242480687L196.21179992675783,123.52292903758638L200.29954575856527,125.66392729010494L204.38729159037274,127.53283877462394L208.47503742218018,129.514762781416L212.56278325398765,130.61017409907552L216.65052908579509,132.6728167768348L220.73827491760255,133.98098692872082L224.82602074941,135.67891236818028L228.91376658121746,137.61254919846644L233.0015124130249,139.1520020788574L237.08925824483237,141.24432705749916L241.1770040766398,142.43543321619103L245.26474990844727,144.31422942139184L249.3524957402547,146.10500221315843L253.4402415720622,147.71668527887553L257.52798740386964,149.01146273620964L261.6157332356771,150.30910197798642L265.7034790674845,151.99172286276345L269.79122489929205,153.89895377309188L273.87897073109946,154.83406242320814L277.9667165629069,156.45481158299344L282.05446239471434,158.11865716556602L286.14220822652186,159.5445489937749L290.22995405832927,161.15551939134374L294.31769989013674,164.0032847406947L298.40544572194415,164.96075204494863L302.49319155375167,166.16600065727474L306.5809373855591,166.95329997704536L310.66868321736655,168.09361217576043L314.756429049174,168.8134939377507L318.8441748809815,170.35735896944723L322.9319207127889,170.5191457358178L327.01966654459636,171.9897466094003L331.10741237640383,173.50434529764115L335.1951582082113,174.85427894803988L339.2829040400187,175.93484572570847L343.3706498718262,177.67670598593165L347.45839570363364,178.39333342406655L351.5461415354411,180.0234141858776L355.6338873672485,181.365562599895L359.721633199056,181.43777044312606L363.80937903086345,183.60972644815348L367.8971248626709,184.8673043527244L371.98487069447833,186.327225425496L376.07261652628586,186.43839620502374L380.16036235809327,186.9604177611722L384.24810818990073,187.1674903433094L388.33585402170814,188.53479910204007L392.42359985351567,190.31724250063732L396.5113456853231,189.64577935054345L400.59909151713055,191.35095367913405L404.68683734893796,192.98874043240184L408.7745831807455,193.60323553979686L412.8623290125529,193.32738027340892L416.95007484436036,193.72873480246315L421.03782067616777,194.4198466439609L425.1255665079753,195.70762699871773L429.2133123397827,197.07733815587787L433.30105817159017,199.2878922300825L437.38880400339764,199.33088881178506L441.4765498352051,199.83422127165625L445.5642956670125,201.46928476569897L449.65204149882,202.09923043717137L453.73978733062745,202.55973603870083L457.8275331624349,203.56437798652894L461.9152789942423,204.21960930228215L466.0030248260498,206.08576095070362L470.09077065785726,207.10951792459625L474.17851648966473,208.01925664131613L478.26626232147214,208.08778723737655L482.3540081532796,207.1011441611321L486.4417539850871,208.59407986949242L490.52949981689454,209.7761734056721L494.617245648702,211.58283256636807L498.7049914805094,210.96630819995383L502.7927373123169,210.7279388341976L506.8804831441244,210.10300063555204L510.9682289759319,210.3236939301827L515.0559748077393,209.94693020637516L519.1437206395467,212.73945142916222L523.2314664713542,212.89208447551619L527.3192123031616,214.39801846265547L531.406958134969,215.8458428368715L535.4947039667765,217.34103456127232L539.5824497985841,216.52795035427476L543.6701956303915,217.76621873771663L547.7579414621989,218.68887230441754L551.8456872940063,219.2539465728788L555.9334331258138,218.28153237683873L560.0211789576213,218.1535138860855L564.1089247894287,218.73720252307072L568.1966706212362,220.86054477644566L572.2844164530437,220.09957860654157L576.3721622848511,222.08320080973314L580.4599081166585,222.27032423506373L584.547653948466,221.2388229837549L588.6353997802735,221.55072347112892L592.7231456120809,223.52691250073931L596.8108914438883,224.02450251574734L600.8986372756958,224.18058383441434L604.9863831075033,224.56167412116847L609.0741289393108,225.54509796323273L613.1618747711182,225.5682568449745L617.2496206029256,226.9700197810256L621.3373664347331,226.82286566229348L625.4251122665405,228.0173543616791L629.512858098348,228.63248344036896L633.6006039301554,229.39350639271282L637.688349761963,230.01039847392292L641.7760955937704,228.89007579414016L645.8638414255778,228.29340352864745L649.9515872573852,228.2251713721255L654.0393330891927,230.13319857527517L658.1270789210001,230.4517176685819L662.2148247528077,229.59623589065814L666.3025705846151,230.10119528663677L670.3903164164226,230.33530588818945L674.47806224823,231.71359561732498L678.5658080800374,231.06353507742156L682.6535539118448,232.95952396295698L686.7412997436523,234.47175640291786L690.8290455754599,234.71132966770014L694.9167914072673,233.64423603366228L699.0045372390747,232.1667829230208L703.0922830708822,234.31791645600282L707.1800289026896,235.50120816680078L711.267774734497,234.261273719485L715.3555205663044,234.8808019361222L719.443266398112,234.57210568485965L723.5310122299195,236.74191685266285L727.6187580617269,237.92593146186422L731.7065038935343,237.5508908052035L735.7942497253418,235.99851572269762L739.8819955571493,236.79756391456675L743.9697413889567,239.33248796283962L748.0574872207642,238.57817821091282L752.1452330525717,239.39217651828176L756.2329788843791,240.07238806380403L760.3207247161865,241.48528443350676L764.408470547994,239.45580610420427L768.4962163798015,239.05459828335088L772.5839622116089,240.1516247580083L776.6717080434163,239.66947669329593L780.7594538752238,240.50008366197235L784.8471997070313,241.47184989717357L788.9349455388387,243.16925852384597L793.0226913706462,242.861628803389L797.1104372024537,244.72716558997286L801.1981830342611,244.0530013871755L805.2859288660685,243.2003393063834L809.3736746978759,242.7798779855799L813.4614205296836,244.87281205980335L817.549166361491,244.5732710582098L821.6369121932984,245.90128304764278L825.7246580251058,247.0244711289596L829.8124038569133,247.7664169754912L833.9001496887207,247.6540910926221L837.9878955205281,248.5325566941597L842.0756413523355,246.66713767873563L846.1633871841432,248.1041575164612L850.2511330159506,248.41248152757728L854.338878847758,246.31333667823318L858.4266246795654,246.5552351333807L862.5143705113729,247.85036206556273L866.6021163431803,246.01885950388427L870.6898621749878,245.8596897493792L874.7776080067953,248.23689476444895L878.8653538386028,247.3384195795686L882.9530996704102,249.2082239993553L887.0408455022176,250.0715646190435L891.128591334025,249.81571790932972L895.2163371658326,248.38106505485246" fill="none"></path></g><g><path style="fill: none;" stroke="rgb(0, 119, 187)" stroke-width="2px" d="M81.75491663614909,172.37209732804595L85.84266246795654,214.9268258194627L89.930408299764,237.4595733857523L94.01815413157146,250.8512421549754L98.10589996337892,263.1823487944796L102.19364579518637,275.04881413698615L106.28139162699382,279.83699666860036L110.36913745880128,280.8906178701467L114.45688329060873,283.57237469591826L118.54462912241618,284.53433251396166L122.63237495422364,289.6284389144666L126.7201207860311,289.370600304148L130.80786661783856,291.6411823238327L134.89561244964602,292.9671170683861L138.98335828145346,291.56270562006745L143.07110411326093,289.0826096636014L147.15884994506837,290.64546359172135L151.24659577687584,293.4316922521002L155.33434160868327,293.0008645409523L159.42208744049074,289.712143004263L163.50983327229818,289.1518745229374L167.59757910410565,294.6959381176196L171.6853249359131,292.38590512368637L175.77307076772055,297.5500940311273L179.860816599528,297.2923061072862L183.94856243133546,298.9145378312221L188.03630826314293,294.1026098523941L192.12405409495037,298.8619898947651L196.21179992675783,303.0703582718255L200.29954575856527,301.034212712698L204.38729159037274,302.9850880965924L208.47503742218018,302.62753311305164L212.56278325398765,301.76068208843196L216.65052908579509,300.1880152949892L220.73827491760255,304.0372055081884L224.82602074941,299.8885353695401L228.91376658121746,297.82784690448796L233.0015124130249,303.0902353513499L237.08925824483237,303.19267340046866L241.1770040766398,299.2466653890635L245.26474990844727,298.587859230812L249.3524957402547,299.0871137725276L253.4402415720622,297.9891749804069L257.52798740386964,300.0120849908126L261.6157332356771,299.02744715396756L265.7034790674845,299.0290202472196L269.79122489929205,295.79859085259386L273.87897073109946,296.6479111083377L277.9667165629069,295.43227186162073L282.05446239471434,294.81984516296023L286.14220822652186,296.0818390690965L290.22995405832927,291.57122070605675L294.31769989013674,291.99550470335896L298.40544572194415,294.92775460294763L302.49319155375167,295.6627405985132L306.5809373855591,301.80761817181497L310.66868321736655,306.52349873789495L314.756429049174,308.4102028860519L318.8441748809815,308.7692479336265L322.9319207127889,302.0586356725213L327.01966654459636,305.4253723011735L331.10741237640383,304.814994552191L335.1951582082113,303.383412205391L339.2829040400187,302.15229206894L343.3706498718262,299.5024280284999L347.45839570363364,294.93431173897494L351.5461415354411,296.9298615489585L355.6338873672485,299.2687063707603L359.721633199056,299.0909047633319L363.80937903086345,297.400133827816L367.8971248626709,298.7862542815982L371.98487069447833,299.5279832144154L376.07261652628586,302.30099438084545L380.16036235809327,303.8487317388575L384.24810818990073,301.86702901118207L388.33585402170814,306.1500042783329L392.42359985351567,303.29441441387405L396.5113456853231,302.174484072931L400.59909151713055,302.1517376136301L404.68683734893796,299.83443918406937L408.7745831807455,303.5832971821872L412.8623290125529,304.90326680991114L416.95007484436036,307.5663640340117L421.03782067616777,304.78176574183715L425.1255665079753,305.8859376768612L429.2133123397827,305.8902985482681L433.30105817159017,305.02225633421784L437.38880400339764,304.64384822690585L441.4765498352051,303.8829259919413L445.5642956670125,305.4988552325922L449.65204149882,307.5268486892579L453.73978733062745,303.92622625175454L457.8275331624349,304.33192822078286L461.9152789942423,305.45940395560837L466.0030248260498,301.6942471126407L470.09077065785726,300.02917287870224L474.17851648966473,303.280914905138L478.26626232147214,301.43082091493653L482.3540081532796,304.86779832176705L486.4417539850871,303.0725304346846L490.52949981689454,305.65766945203893L494.617245648702,303.335184723L498.7049914805094,299.6257846340826L502.7927373123169,300.3687601383208L506.8804831441244,300.0330812089578L510.9682289759319,299.40275811139986L515.0559748077393,300.1907075221437L519.1437206395467,302.8870717714975L523.2314664713542,302.36757808916616L527.3192123031616,304.0362578223834L531.406958134969,307.3979999009119L535.4947039667765,309.6429127018181L539.5824497985841,307.58353721353905L543.6701956303915,309.7268194276465L547.7579414621989,308.54483837391194L551.8456872940063,306.37757197005755L555.9334331258138,307.6683596464984L560.0211789576213,308.42778622656806L564.1089247894287,307.7149275961966L568.1966706212362,298.891918308977L572.2844164530437,302.40817793460445L576.3721622848511,304.40136514515916L580.4599081166585,303.1601818426511L584.547653948466,305.0120969653274L588.6353997802735,307.41515189616916L592.7231456120809,305.2574901288722L596.8108914438883,302.09037702323485L600.8986372756958,305.3170320489734L604.9863831075033,301.0411935780043L609.0741289393108,300.1613168728134L613.1618747711182,300.4812517373705L617.2496206029256,304.25706506200197L621.3373664347331,305.7514754362301L625.4251122665405,306.0081316732475L629.512858098348,307.88408413163427L633.6006039301554,304.03769984958006L637.688349761963,306.50771050372276L641.7760955937704,306.1645022278951L645.8638414255778,305.42707120095565L649.9515872573852,304.29159402341105L654.0393330891927,300.49015025156643L658.1270789210001,300.09396166009856L662.2148247528077,301.45860171680374L666.3025705846151,305.8142695950953L670.3903164164226,308.4754154527723L674.47806224823,307.62252676414556L678.5658080800374,306.0532451462065L682.6535539118448,301.1090450294729L686.7412997436523,302.90066074257334L690.8290455754599,300.17958026526173L694.9167914072673,302.9518952413299L699.0045372390747,300.2414391966665L703.0922830708822,300.46016888224545L707.1800289026896,301.46657230457333L711.267774734497,308.06029962977686L715.3555205663044,303.30103197891685L719.443266398112,304.54223379989674L723.5310122299195,305.26333887227395L727.6187580617269,308.1414456620789L731.7065038935343,306.55316409672554L735.7942497253418,303.2234777741204L739.8819955571493,304.41560372403177L743.9697413889567,302.9193908482312L748.0574872207642,304.62218493960324L752.1452330525717,305.65781190313584L756.2329788843791,309.4517362244102L760.3207247161865,308.15114432910775L764.408470547994,303.09645594144126L768.4962163798015,300.4986325283189L772.5839622116089,302.85490052496397L776.6717080434163,300.8427020504181L780.7594538752238,301.6658337462286L784.8471997070313,302.71164536524606L788.9349455388387,302.0610799169958L793.0226913706462,301.00921473604734L797.1104372024537,302.6752978846892L801.1981830342611,305.25346308837123L805.2859288660685,304.13144684605965L809.3736746978759,303.2121063063566L813.4614205296836,304.52267301835326L817.549166361491,302.72725369220166L821.6369121932984,304.200352004307L825.7246580251058,308.9729915644751L829.8124038569133,307.46540666011333L833.9001496887207,307.4361461342207L837.9878955205281,303.7090718959647L842.0756413523355,304.60481362939186L846.1633871841432,300.04526142425834L850.2511330159506,302.63788946098686L854.338878847758,308.18027483412595L858.4266246795654,306.17203552043173L862.5143705113729,306.37953240346866L866.6021163431803,308.0760282144941L870.6898621749878,308.8031421850795L874.7776080067953,305.0912559240492L878.8653538386028,303.2875900565534L882.9530996704102,301.81198896391356L887.0408455022176,306.9085121452207L891.128591334025,301.63483834362717L895.2163371658326,300.19257891154257" fill="none"></path></g><g><path style="fill: none;" stroke="rgb(238, 51, 119)" stroke-width="2px" d="M81.75491663614909,138.26913581133692L85.84266246795654,188.13488077683115L89.930408299764,217.57589866261017L94.01815413157146,234.53645699755685L98.10589996337892,249.72750194944072L102.19364579518637,261.6968031598528L106.28139162699382,274.49469163112303L110.36913745880128,282.59871901398276L114.45688329060873,285.9351497243127L118.54462912241618,289.17897445408084L122.63237495422364,291.3371089310824L126.7201207860311,295.43847125383934L130.80786661783856,296.6717875146703L134.89561244964602,297.385084797268L138.98335828145346,299.3697649908887L143.07110411326093,301.26668653167917L147.15884994506837,299.06959443025033L151.24659577687584,300.80929565840756L155.33434160868327,305.53840868708505L159.42208744049074,304.9631425155702L163.50983327229818,306.42465451888984L167.59757910410565,306.1442993774418L171.6853249359131,306.3268094317139L175.77307076772055,308.5920527693512L179.860816599528,304.74430919734675L183.94856243133546,304.80857797757176L188.03630826314293,305.03727398735464L192.12405409495037,304.0467737834396L196.21179992675783,302.77757980780575L200.29954575856527,307.0692136659954L204.38729159037274,309.01887491179593L208.47503742218018,312.413763942687L212.56278325398765,310.2069966116514L216.65052908579509,308.295364688564L220.73827491760255,306.8471599679819L224.82602074941,308.9548819093824L228.91376658121746,312.8504201584353L233.0015124130249,313.1170216508392L237.08925824483237,309.6866402330679L241.1770040766398,308.1851698116701L245.26474990844727,310.4707862145358L249.3524957402547,310.5967888724241L253.4402415720622,311.7443054000465L257.52798740386964,312.72957564089256L261.6157332356771,311.69881780635086L265.7034790674845,307.3201185814882L269.79122489929205,310.355488188985L273.87897073109946,308.88849462017726L277.9667165629069,313.4577055430937L282.05446239471434,308.72858214253944L286.14220822652186,307.7908179323696L290.22995405832927,306.53590354665596L294.31769989013674,306.3988989960887L298.40544572194415,309.7842019837057L302.49319155375167,310.70654021075876L306.5809373855591,309.30610922591364L310.66868321736655,310.31505574076306L314.756429049174,307.9117731828948L318.8441748809815,306.6848439449492L322.9319207127889,308.56044073598724L327.01966654459636,308.1035115891856L331.10741237640383,310.78737503776483L335.1951582082113,311.7160734701429L339.2829040400187,311.72282986235587L343.3706498718262,313.5457887422764L347.45839570363364,310.2262388229308L351.5461415354411,307.53584631685635L355.6338873672485,309.16725352038924L359.721633199056,310.37472809806644L363.80937903086345,311.90660893670434L367.8971248626709,314.105162722731L371.98487069447833,314.5644250206493L376.07261652628586,315.78724412845213L380.16036235809327,310.29745557062245L384.24810818990073,308.2398804005916L388.33585402170814,311.4949723246259L392.42359985351567,308.8075141758986L396.5113456853231,310.95317598029203L400.59909151713055,314.77106499013615L404.68683734893796,314.1976868480301L408.7745831807455,314.1329058811362L412.8623290125529,312.39457135333896L416.95007484436036,308.824503933758L421.03782067616777,310.0017277107952L425.1255665079753,309.4639844543129L429.2133123397827,312.5037716493009L433.30105817159017,311.57953242360287L437.38880400339764,312.058255642102L441.4765498352051,311.546982423598" fill="none"></path></g><g><path style="fill: none;" stroke="rgb(204, 51, 17)" stroke-width="2px" d="M81.75491663614909,75.05412514077608L85.84266246795654,88.04761647207926L89.930408299764,101.89286455470665L94.01815413157146,116.9860688914103L98.10589996337892,131.59765829092825L102.19364579518637,146.275894837539L106.28139162699382,158.38217811186587L110.36913745880128,171.52640218761255L114.45688329060873,182.4901365548974L118.54462912241618,191.69065870878956L122.63237495422364,198.6892437820097L126.7201207860311,204.98270351483768L130.80786661783856,212.4850447806103L134.89561244964602,216.9230231848894L138.98335828145346,222.35338219691047L143.07110411326093,226.64142682625456L147.15884994506837,233.83348826524613L151.24659577687584,236.64036130911734L155.33434160868327,242.28515725285766L159.42208744049074,245.64776788367337L163.50983327229818,246.61825109078825L167.59757910410565,248.20955350829124L171.6853249359131,253.2601733348348L175.77307076772055,253.2476580445761L179.860816599528,254.73246929844657L183.94856243133546,256.4969395774957L188.03630826314293,259.0364414858341L192.12405409495037,262.2511211628718L196.21179992675783,265.4629866951336L200.29954575856527,269.1709865454115L204.38729159037274,270.2299475877301L208.47503742218018,270.65028380933416L212.56278325398765,275.37756209050906L216.65052908579509,275.01302204139824L220.73827491760255,276.33660582658473L224.82602074941,275.94673784565293L228.91376658121746,278.3150445711243L233.0015124130249,281.7427108244517L237.08925824483237,283.9754253406716L241.1770040766398,284.9976869073109L245.26474990844727,283.85852158888224L249.3524957402547,282.8863883144973L253.4402415720622,282.37854648873514L257.52798740386964,289.2404922912368L261.6157332356771,293.36003108111174L265.7034790674845,293.9764199001344L269.79122489929205,293.6296463445146L273.87897073109946,293.1575487262288L277.9667165629069,295.165238258005L282.05446239471434,296.3584807870516L286.14220822652186,295.7720367647417L290.22995405832927,294.9477528760074L294.31769989013674,295.4169740992389L298.40544572194415,295.52425028005433L302.49319155375167,295.1647340802744L306.5809373855591,295.9847456272889L310.66868321736655,297.0339963347977L314.756429049174,298.7789079581109L318.8441748809815,303.88836510054114L322.9319207127889,300.9670385136071L327.01966654459636,300.021097828588L331.10741237640383,297.2152810734109L335.1951582082113,298.2649258737249L339.2829040400187,299.3755199487148L343.3706498718262,302.03912884636384L347.45839570363364,303.78055731166916L351.5461415354411,301.9453831768376L355.6338873672485,301.17918797609684L359.721633199056,305.6321022824618L363.80937903086345,307.7210912460011L367.8971248626709,308.77693099880344L371.98487069447833,311.40846387221336L376.07261652628586,309.39080100448206L380.16036235809327,312.22284160439244L384.24810818990073,311.2453155725606L388.33585402170814,311.51858672333003L392.42359985351567,307.5982675766877L396.5113456853231,306.6601390346267L400.59909151713055,305.53662064039423L404.68683734893796,309.86303200899386L408.7745831807455,308.97776928611273L412.8623290125529,309.61390590796776L416.95007484436036,310.0609860908952L421.03782067616777,306.3857471099949L425.1255665079753,309.7691553227279L429.2133123397827,308.6778917987446L433.30105817159017,308.12286734105203L437.38880400339764,306.36232456747365L441.4765498352051,309.0695299785548L445.5642956670125,306.4876777782038L449.65204149882,305.04831230881405L453.73978733062745,309.36051203330805L457.8275331624349,307.66677297465253L461.9152789942423,311.77465123299424L466.0030248260498,311.56850753349045L470.09077065785726,314.1483494712896L474.17851648966473,315.0470151540944L478.26626232147214,316.0012352642278L482.3540081532796,310.67747249913646L486.4417539850871,313.4639199560579L490.52949981689454,317.1496400468074L494.617245648702,312.30756454514983L498.7049914805094,312.6000088110576L502.7927373123169,307.6333539153329L506.8804831441244,308.3409546916031L510.9682289759319,305.0963094899312L515.0559748077393,307.61383769626985L519.1437206395467,307.44089154224383L523.2314664713542,309.0313340889396L527.3192123031616,308.81811121910494L531.406958134969,309.6475484915136L535.4947039667765,311.05160563652913L539.5824497985841,307.83847727484107L543.6701956303915,305.0538365604237L547.7579414621989,308.8692214211168L551.8456872940063,310.67050348071814L555.9334331258138,312.29867070931437L560.0211789576213,315.2365743641708L564.1089247894287,312.57751838650495L568.1966706212362,308.67062695327786L572.2844164530437,313.1453093816589L576.3721622848511,314.74662470649383L580.4599081166585,311.0636833835148L584.547653948466,311.7133429886904L588.6353997802735,314.9174805425937L592.7231456120809,313.2084487421657L596.8108914438883,312.6086172486779L600.8986372756958,312.2214690984959L604.9863831075033,310.57753017351143L609.0741289393108,310.31685675019907L613.1618747711182,310.00584611410386L617.2496206029256,313.63828162910977L621.3373664347331,317.10738842465383L625.4251122665405,317.0652689018678L629.512858098348,320.14232129943827L633.6006039301554,316.6235698259838L637.688349761963,314.765300184838L641.7760955937704,316.7898268884712L645.8638414255778,316.2889354201099L649.9515872573852,318.54485206103664L654.0393330891927,319.2056330956997L658.1270789210001,315.29307246920246L662.2148247528077,314.5750692224548L666.3025705846151,317.81928334258504L670.3903164164226,311.15804286029413L674.47806224823,315.34241215604385L678.5658080800374,317.8162992428664L682.6535539118448,318.36268859478747L686.7412997436523,318.736672596581L690.8290455754599,317.6170022067672L694.9167914072673,315.04418661609134L699.0045372390747,316.6524801917034L703.0922830708822,318.5562451428408L707.1800289026896,317.8117463461524L711.267774734497,318.22045176966566L715.3555205663044,313.05117196605016L719.443266398112,316.20855667227545L723.5310122299195,317.7100296776245L727.6187580617269,317.22828771507255L731.7065038935343,315.91772139085685L735.7942497253418,318.28629052767474L739.8819955571493,315.1550454291304L743.9697413889567,311.9160960362335L748.0574872207642,312.09302344935134L752.1452330525717,313.2569779134728L756.2329788843791,309.96428477824554L760.3207247161865,314.7365271863551L764.408470547994,313.96769266781655L768.4962163798015,313.4220094064983L772.5839622116089,312.72147187729956L776.6717080434163,312.1652081700412L780.7594538752238,312.2657878018344L784.8471997070313,309.0519816948994L788.9349455388387,314.48834630643955L793.0226913706462,313.5923033165661L797.1104372024537,315.9933951709093L801.1981830342611,317.80336434708096L805.2859288660685,318.4519155876473L809.3736746978759,316.27799397292074L813.4614205296836,319.55502411922413L817.549166361491,320.42450479865215L821.6369121932984,318.6381883185965L825.7246580251058,322.37143343880814L829.8124038569133,318.30336539787476L833.9001496887207,321.6577683538251L837.9878955205281,319.28244818072307L842.0756413523355,318.6711975367968L846.1633871841432,323.3308182118765L850.2511330159506,320.042546344982L854.338878847758,318.7231493038424L858.4266246795654,317.4162713663401L862.5143705113729,312.819994757701L866.6021163431803,312.0104187205072L870.6898621749878,311.13408658893917L874.7776080067953,314.8010530731789L878.8653538386028,314.86824733090157L882.9530996704102,312.08090948205233L887.0408455022176,319.2233145889711L891.128591334025,317.935265944949L895.2163371658326,315.0570609297307" fill="none"></path></g></g></g></g><g opacity="0.2"><g><g><g><path style="fill: none;" stroke="rgb(0, 153, 136)" stroke-width="2px" d="M81.75491663614909,69.91954749936144L85.84266246795654,72.30687337098777L89.930408299764,74.32290215445062L94.01815413157146,75.96097754340747L98.10589996337892,78.91540684810377L102.19364579518637,80.42555634954203L106.28139162699382,82.84082484050174L110.36913745880128,84.5848464387422L114.45688329060873,87.14717769795493L118.54462912241618,88.64241984664716L122.63237495422364,91.03875946644553L126.7201207860311,93.10048101948814L130.80786661783856,94.88298438877075L134.89561244964602,97.49184045585605L138.98335828145346,99.50183696169603L143.07110411326093,101.78245392227035L147.15884994506837,103.11343784465828L151.24659577687584,105.37193645394893L155.33434160868327,107.52386482523627L159.42208744049074,109.58364495559567L163.50983327229818,111.5357454635614L167.59757910410565,112.73970487324806L171.6853249359131,115.51094708047879L175.77307076772055,116.69625496510173L179.860816599528,118.63545887952904L183.94856243133546,119.88178290562422L188.03630826314293,122.28269873603304L192.12405409495037,123.62928337641108L196.21179992675783,127.16253398680101L200.29954575856527,128.87542348558577L204.38729159037274,130.336205381651L208.47503742218018,132.4876483972676L212.56278325398765,132.25329094479463L216.65052908579509,135.76678064573048L220.73827491760255,135.94324210032923L224.82602074941,138.22580048358674L228.91376658121746,140.51300441397908L233.0015124130249,141.46118138515305L237.08925824483237,144.38281451380803L241.1770040766398,144.22209245024817L245.26474990844727,147.13242372542587L249.3524957402547,148.79116139865403L253.4402415720622,150.13420987628763L257.52798740386964,150.95362892165022L261.6157332356771,152.25556084031447L265.7034790674845,154.5156541896663L269.79122489929205,156.75980013840604L273.87897073109946,156.23672539833026L277.9667165629069,158.88593532261652L282.05446239471434,160.6144255393913L286.14220822652186,161.6833867360706L290.22995405832927,163.57197498768565L294.31769989013674,168.2749327647085L298.40544572194415,166.39695300132666L302.49319155375167,167.97387357576244L306.5809373855591,168.13424895670028L310.66868321736655,169.80408047383244L314.756429049174,169.89331658073561L318.8441748809815,172.673156516992L322.9319207127889,170.76182588537367L327.01966654459636,174.1956479197736L331.10741237640383,175.77624333000256L335.1951582082113,176.87917942363796L339.2829040400187,177.5556958922116L343.3706498718262,180.28949637626621L347.45839570363364,179.46827458126916L351.5461415354411,182.46853532859407L355.6338873672485,183.37878522092106L359.721633199056,181.54608220797263L363.80937903086345,186.86766045569482L367.8971248626709,186.75367120958074L371.98487069447833,188.51710703465332L376.07261652628586,186.60515237431534L380.16036235809327,187.74345009539488L384.24810818990073,187.47809921651495L388.33585402170814,190.58576224013592L392.42359985351567,192.99090759853317L396.5113456853231,188.63858462540261L400.59909151713055,193.9087151720198L404.68683734893796,195.4454205623034L408.7745831807455,194.52497820088956L412.8623290125529,192.91359737382686L416.95007484436036,194.33076659604436L421.03782067616777,195.45651440620745L425.1255665079753,197.63929753085296L429.2133123397827,199.13190489161798L433.30105817159017,202.60372334138924L437.38880400339764,199.3953836843391L441.4765498352051,200.58921996146324L445.5642956670125,203.92188000676316L449.65204149882,203.0441489443799L453.73978733062745,203.25049444099517L457.8275331624349,205.07134090827117L461.9152789942423,205.20245627591208L466.0030248260498,208.88498842333587L470.09077065785726,208.64515338543526L474.17851648966473,209.38386471639592L478.26626232147214,208.19058313146695L482.3540081532796,205.62117954676546L486.4417539850871,210.83348343203278L490.52949981689454,211.54931370994137L494.617245648702,214.292821307412L498.7049914805094,210.0415216503327L502.7927373123169,210.37038478556326L506.8804831441244,209.16559333758383L510.9682289759319,210.65473387212884L515.0559748077393,209.38178462066395L519.1437206395467,216.9282332633426L523.2314664713542,213.1210340450471L527.3192123031616,216.65691944336427L531.406958134969,218.01757939819555L535.4947039667765,219.5838221478737L539.5824497985841,215.30832404377867L543.6701956303915,219.62362131287944L547.7579414621989,220.07285265446893L551.8456872940063,220.10155797557064L555.9334331258138,216.82291108277855L560.0211789576213,217.9614861499557L564.1089247894287,219.6127354785486L568.1966706212362,224.0455581565079L572.2844164530437,218.95812935168547L576.3721622848511,225.05863411452052L580.4599081166585,222.55100937305966L584.547653948466,219.69157110679174L588.6353997802735,222.01857420218982L592.7231456120809,226.49119604515488L596.8108914438883,224.77088753825933L600.8986372756958,224.41470581241504L604.9863831075033,225.13330955129965L609.0741289393108,227.02023372632908L613.1618747711182,225.60299516758718L617.2496206029256,229.07266418510204L621.3373664347331,226.60213448419535L625.4251122665405,229.8090874107575L629.512858098348,229.55517705840367L633.6006039301554,230.53504082122856L637.688349761963,230.93573659573784L641.7760955937704,227.20959177446628L645.8638414255778,227.3983951304083L649.9515872573852,228.1228231373425L654.0393330891927,232.99523937999962L658.1270789210001,230.92949630854181L662.2148247528077,228.3130132237725L666.3025705846151,230.8586343806047L670.3903164164226,230.6864717905188L674.47806224823,233.7810302110281L678.5658080800374,230.0884442675663L682.6535539118448,235.80350729126013L686.7412997436523,236.74010506285924L690.8290455754599,235.07068956487348L694.9167914072673,232.04359558260566L699.0045372390747,229.9506032570585L703.0922830708822,237.5446167554758L707.1800289026896,237.27614573299786L711.267774734497,232.40137204851115L715.3555205663044,235.81009426107818L719.443266398112,234.10906130796587L723.5310122299195,239.99663360436762L727.6187580617269,239.7019533756664L731.7065038935343,236.98832982021227L735.7942497253418,233.66995309893883L739.8819955571493,237.99613620237048L743.9697413889567,243.1348740352491L748.0574872207642,237.44671358302259L752.1452330525717,240.613173979335L756.2329788843791,241.0927053820874L760.3207247161865,243.60462898806108L764.408470547994,236.41158861025067L768.4962163798015,238.4527865520708L772.5839622116089,241.79716446999433L776.6717080434163,238.94625459622765L780.7594538752238,241.74599411498693L784.8471997070313,242.92949924997546L788.9349455388387,245.71537146385467L793.0226913706462,242.40018422270364L797.1104372024537,247.52547076984862L801.1981830342611,243.04175508297953L805.2859288660685,241.92134618519526L809.3736746978759,242.1491860043746L813.4614205296836,248.01221317113865L817.549166361491,244.12395955581923L821.6369121932984,247.89330103179216L825.7246580251058,248.70925325093475L829.8124038569133,248.87933574528867L833.9001496887207,247.48560226831847L837.9878955205281,249.85025509646593L842.0756413523355,243.86900915559937L846.1633871841432,250.25968727304962L850.2511330159506,248.87496754425146L854.338878847758,243.16461940421684L858.4266246795654,246.9180828161021L862.5143705113729,249.7930524638357L866.6021163431803,243.2716056613665L870.6898621749878,245.62093511762149L874.7776080067953,251.80270228705368L878.8653538386028,245.9907068022482L882.9530996704102,252.01293062903534L887.0408455022176,251.36657554857584L891.128591334025,249.43194784475898L895.2163371658326,246.22908577313643" fill="none"></path></g><g><path style="fill: none;" stroke="rgb(0, 119, 187)" stroke-width="2px" d="M81.75491663614909,172.37209732804595L85.84266246795654,240.45966291431276L89.930408299764,259.0910110493901L94.01815413157146,266.5998446275816L98.10589996337892,279.2818416230165L102.19364579518637,291.46440763319606L106.28139162699382,286.68417429972914L110.36913745880128,282.4268076967648L114.45688329060873,287.5274451094855L118.54462912241618,285.96272776334416L122.63237495422364,297.2233953450975L126.7201207860311,288.9852455350016L130.80786661783856,295.0396415091104L134.89561244964602,294.95342154101866L138.98335828145346,289.45773928052733L143.07110411326093,285.36421488472087L147.15884994506837,292.9890831364962L151.24659577687584,297.6103278195133L155.33434160868327,292.3546886064958L159.42208744049074,284.7793613014044L163.50983327229818,288.31150252740395L167.59757910410565,303.0118510798691L171.6853249359131,288.9209012403581L175.77307076772055,305.2963162175476L179.860816599528,296.905626053771L183.94856243133546,301.3478784990487L188.03630826314293,286.884730196557L192.12405409495037,306.00105265155213L196.21179992675783,309.38290696091406L200.29954575856527,297.97999549935344L204.38729159037274,305.9114005255026L208.47503742218018,302.091200708882L212.56278325398765,300.4604056549872L216.65052908579509,297.8290152174718L220.73827491760255,309.8109906625614L224.82602074941,293.66553026854547L228.91376658121746,294.73681423879214L233.0015124130249,310.9838179727923L237.08925824483237,303.346330473576L241.1770040766398,293.32765338514287L245.26474990844727,297.5996499947557L249.3524957402547,299.83599558450044L253.4402415720622,296.34226679301867L257.52798740386964,303.0464500055448L261.6157332356771,297.55049039895584L265.7034790674845,299.0313798870973L269.79122489929205,290.9529467609574L273.87897073109946,297.921891491906L277.9667165629069,293.60881299158603L282.05446239471434,293.9012051149821L286.14220822652186,297.97482992828566L290.22995405832927,284.80529316153013L294.31769989013674,292.6319306993104L298.40544572194415,299.3261294523229L302.49319155375167,296.7652195918604L306.5809373855591,311.0249345317617L310.66868321736655,313.5973195870124L314.756429049174,311.24025910828675L318.8441748809815,309.3078155049885L322.9319207127889,291.9927172808641L327.01966654459636,310.4754772441516L331.10741237640383,303.89942792871716L335.1951582082113,301.23603868519103L339.2829040400187,300.3056118642636L343.3706498718262,295.5276319678396L347.45839570363364,288.08213730468776L351.5461415354411,299.92318626393376L355.6338873672485,302.7769736034631L359.721633199056,298.8242023521892L363.80937903086345,294.86397742454227L367.8971248626709,300.8654349622715L371.98487069447833,300.6405766136414L376.07261652628586,306.46051113049066L380.16036235809327,306.1703377758754L384.24810818990073,298.8944749196689L388.33585402170814,312.57446717905935L392.42359985351567,299.0110296171858L396.5113456853231,300.4945885615166L400.59909151713055,302.11761792467854L404.68683734893796,296.35849153972833L408.7745831807455,309.2065841793641L412.8623290125529,306.883221251497L416.95007484436036,311.5610098701625L421.03782067616777,300.60486830357524L425.1255665079753,307.54219557939734L429.2133123397827,305.8968398553785L433.30105817159017,303.7201930131424L437.38880400339764,304.0762360659379L441.4765498352051,302.7415426394945L445.5642956670125,307.9227490935683L449.65204149882,310.5688388742566L453.73978733062745,298.52529259549954L457.8275331624349,304.9404811743253L461.9152789942423,307.1506175578467L466.0030248260498,296.0465118481892L470.09077065785726,297.53156152779457L474.17851648966473,308.15852794479156L478.26626232147214,298.6556799296343L482.3540081532796,310.02326443201287L486.4417539850871,300.3796286040609L490.52949981689454,309.5353779780703L494.617245648702,299.8514576294417L498.7049914805094,294.0616845007065L502.7927373123169,301.4832233946781L506.8804831441244,299.52956281491333L510.9682289759319,298.4572734650628L515.0559748077393,301.37263163825963L519.1437206395467,306.93161814552843L523.2314664713542,301.5883375656689L527.3192123031616,306.53927742220935L531.406958134969,312.4406130187046L535.4947039667765,313.0102819031774L539.5824497985841,304.49447398112045L543.6701956303915,312.94174274880766L547.7579414621989,306.77186679331015L551.8456872940063,303.1266723642759L555.9334331258138,309.60454116115955L560.0211789576213,309.56692609667243L564.1089247894287,306.6456396506394L568.1966706212362,285.6574043781475L572.2844164530437,307.68256737304574L576.3721622848511,307.3911459609913L580.4599081166585,301.2984068888891L584.547653948466,307.7899696493418L588.6353997802735,311.0197342924316L592.7231456120809,302.0209974779267L596.8108914438883,297.339707364779L600.8986372756958,310.15701458758105L604.9863831075033,294.6274358715507L609.0741289393108,298.8415018150271L613.1618747711182,300.9611540342061L617.2496206029256,309.92078504894926L621.3373664347331,307.99309099757244L625.4251122665405,306.39311602877353L629.512858098348,310.69801281921434L633.6006039301554,298.26812342649885L637.688349761963,310.2127264849367L641.7760955937704,305.64968981415365L645.8638414255778,304.32092466054655L649.9515872573852,302.5883782570943L654.0393330891927,294.7879845937996L658.1270789210001,299.4996787728968L662.2148247528077,303.5055618018613L666.3025705846151,312.3477714125326L670.3903164164226,312.4671342392877L674.47806224823,306.34319373120536L678.5658080800374,303.6993227192979L682.6535539118448,293.69274485437256L686.7412997436523,305.588084312224L690.8290455754599,296.0979595492942L694.9167914072673,307.11036770543234L699.0045372390747,296.17575512967136L703.0922830708822,300.788263410614L707.1800289026896,302.9761774380651L711.267774734497,317.95089061758216L715.3555205663044,296.1621305026267L719.443266398112,306.4040365313666L723.5310122299195,306.34499648083977L727.6187580617269,312.45860584678644L731.7065038935343,304.1707417486955L735.7942497253418,298.2289482902127L739.8819955571493,306.20379264889857L743.9697413889567,300.6750715345305L748.0574872207642,307.1763760766614L752.1452330525717,307.21125234843475L756.2329788843791,315.1426227063217L760.3207247161865,306.20025648615416L764.408470547994,295.51442335994136L768.4962163798015,296.6018974086355L772.5839622116089,306.38930251993156L776.6717080434163,297.8244043385992L780.7594538752238,302.9005312899444L784.8471997070313,304.2803627937724L788.9349455388387,301.0852317446204L793.0226913706462,299.43141696462476L797.1104372024537,305.1744226076519L801.1981830342611,309.12071089389434L805.2859288660685,302.4484224825923L809.3736746978759,301.83309549680195L813.4614205296836,306.4885230863483L817.549166361491,300.0341247029742L821.6369121932984,306.409999472465L825.7246580251058,316.1319509047272L829.8124038569133,305.2040293035708L833.9001496887207,307.3922553453817L837.9878955205281,298.11846053858085L842.0756413523355,305.9484262295323L846.1633871841432,293.2059331165582L850.2511330159506,306.5268315160795L854.338878847758,316.4938528938345L858.4266246795654,303.1596765498905L862.5143705113729,306.690777728024L866.6021163431803,310.6207719310324L870.6898621749878,309.89381314095755L874.7776080067953,299.5234265325039L878.8653538386028,300.5820912553097L882.9530996704102,299.5985873249538L887.0408455022176,314.5532969171814L891.128591334025,293.7243276412369L895.2163371658326,298.0291897634155" fill="none"></path></g><g><path style="fill: none;" stroke="rgb(238, 51, 119)" stroke-width="2px" d="M81.75491663614909,138.26913581133692L85.84266246795654,218.0543277561277L89.930408299764,245.83927583295798L94.01815413157146,254.48207359945405L98.10589996337892,269.56093023862036L102.19364579518637,278.2546556822884L106.28139162699382,292.7958769112548L110.36913745880128,294.4144687368552L114.45688329060873,290.85573695374813L118.54462912241618,293.9956761294775L122.63237495422364,294.554736525717L126.7201207860311,301.5681953053306L130.80786661783856,298.51773491433994L134.89561244964602,298.45363329753184L138.98335828145346,302.34445236425404L143.07110411326093,304.11073098682704L147.15884994506837,295.7748860138511L151.24659577687584,303.41840579069014L155.33434160868327,312.63135779732977L159.42208744049074,304.1002958399048L163.50983327229818,308.61684237107744L167.59757910410565,305.7237758904754L171.6853249359131,306.6005709097792L175.77307076772055,311.9898909418405L179.860816599528,298.9727211874546L183.94856243133546,304.90498087383236L188.03630826314293,305.38031741685853L192.12405409495037,302.5610249982184L196.21179992675783,300.87379001346176L200.29954575856527,313.506662081359L204.38729159037274,311.9433661339679L208.47503742218018,317.50609681355434L212.56278325398765,306.8968458785416L216.65052908579509,305.42791694085935L220.73827491760255,304.6748529493478L224.82602074941,312.11646476713327L228.91376658121746,318.69372747174464L233.0015124130249,313.5169238869703L237.08925824483237,304.5410681255174L241.1770040766398,305.932964184591L245.26474990844727,313.89921081425126L249.3524957402547,310.7857928591051L253.4402415720622,313.46558019065185L257.52798740386964,314.20748100173495L261.6157332356771,310.15268105480607L265.7034790674845,300.752069744877L269.79122489929205,314.90854259994626L273.87897073109946,306.688004267048L277.9667165629069,320.3115219273144L282.05446239471434,301.6348970418037L286.14220822652186,306.38417161712596L290.22995405832927,304.65353196809474L294.31769989013674,306.19339217023855L298.40544572194415,314.8621564651225L302.49319155375167,312.09004755133674L306.5809373855591,307.20546274864734L310.66868321736655,311.82847551303666L314.756429049174,304.30684934609326L318.8441748809815,304.8444500880309L322.9319207127889,311.37383592254395L327.01966654459636,307.418117868983L331.10741237640383,314.8131702106337L335.1951582082113,313.10912111870994L339.2829040400187,311.73296445067524L343.3706498718262,316.2802270621572L347.45839570363364,305.2469139439124L351.5461415354411,303.5002575577447L355.6338873672485,311.61436432568854L359.721633199056,312.1859399645823L363.80937903086345,314.2044301946613L367.8971248626709,317.4029934017711L371.98487069447833,315.2533184675267L376.07261652628586,317.6214727901564L380.16036235809327,302.06277273387786L384.24810818990073,305.1535176455452L388.33585402170814,316.3776102106774L392.42359985351567,304.7763269528076L396.5113456853231,314.1716686868822L400.59909151713055,320.49789850490237L404.68683734893796,313.3376196348711L408.7745831807455,314.0357344307954L412.8623290125529,309.7870695616433L416.95007484436036,303.46940280438656L421.03782067616777,311.76756337635095L425.1255665079753,308.6573695695894L429.2133123397827,317.0634524417829L433.30105817159017,310.1931735850558L437.38880400339764,312.77634046985077L441.4765498352051,310.78007259584206" fill="none"></path></g><g><path style="fill: none;" stroke="rgb(204, 51, 17)" stroke-width="2px" d="M81.75491663614909,75.05412514077608L85.84266246795654,95.84371127086115L89.930408299764,115.18430271402906L94.01815413157146,134.73567719137378L98.10589996337892,150.67454941093908L102.19364579518637,166.5811801466582L106.28139162699382,175.69435689468582L110.36913745880128,190.6908070746024L114.45688329060873,198.6595151508788L118.54462912241618,205.35236184166553L122.63237495422364,209.12364474032165L126.7201207860311,214.38864438413322L130.80786661783856,223.7140602333501L134.89561244964602,223.5712963296099L138.98335828145346,230.49253753177118L143.07110411326093,233.07046950897393L147.15884994506837,244.6185369843665L151.24659577687584,240.849958210162L155.33434160868327,250.75149124062088L159.42208744049074,250.69137647396582L163.50983327229818,248.0739226778549L167.59757910410565,250.59645477206183L171.6853249359131,260.83600335897216L175.77307076772055,253.2288852574432L179.860816599528,256.95967562584957L183.94856243133546,259.1436374714099L188.03630826314293,262.84568785045235L192.12405409495037,267.073135743138L196.21179992675783,270.28078203494414L200.29954575856527,274.7329842714733L204.38729159037274,271.81838880004494L208.47503742218018,271.2807880581073L212.56278325398765,282.4684789479294L216.65052908579509,274.4662119938432L220.73827491760255,278.3219814474811L224.82602074941,275.3619358843083L228.91376658121746,281.86750462268986L233.0015124130249,286.88421017262397L237.08925824483237,287.32449710256583L241.1770040766398,286.5310792538533L245.26474990844727,282.14977361352345L249.3524957402547,281.4281884040896L253.4402415720622,281.6167837504584L257.52798740386964,299.53341099201754L261.6157332356771,299.53933926485377L265.7034790674845,294.90100312857203L269.79122489929205,293.1094860111174L273.87897073109946,292.4494022988266L277.9667165629069,298.1767725556015L282.05446239471434,298.1483445805974L286.14220822652186,294.8923707312842L290.22995405832927,293.7113270429119L294.31769989013674,296.1208059340841L298.40544572194415,295.6851645512771L302.49319155375167,294.6254597806053L306.5809373855591,297.2147629478097L310.66868321736655,298.6078723960603L314.756429049174,301.39627539308015L318.8441748809815,311.5525508141857L322.9319207127889,296.58504863320627L327.01966654459636,298.6021868010595L331.10741237640383,293.0065559406451L335.1951582082113,299.83939307419604L339.2829040400187,301.0414110611994L343.3706498718262,306.0345421928375L347.45839570363364,306.39270000962716L351.5461415354411,299.1926219745901L355.6338873672485,300.0298951749858L359.721633199056,312.31147374200907L363.80937903086345,310.8545746913102L367.8971248626709,310.3606906280069L371.98487069447833,315.35576318232813L376.07261652628586,306.36430670288524L380.16036235809327,316.470902504258L384.24810818990073,309.7790265248129L388.33585402170814,311.92849344948405L392.42359985351567,301.71778885672427L396.5113456853231,305.25294622153524L400.59909151713055,303.85134304904557L404.68683734893796,316.3526490618933L408.7745831807455,307.649875201791L412.8623290125529,310.56811084075036L416.95007484436036,310.73160636528627L421.03782067616777,300.87288863864455L425.1255665079753,314.84426764182723L429.2133123397827,307.0409965127699L433.30105817159017,307.2903306545133L437.38880400339764,303.72151040710605L441.4765498352051,313.13033809517646L445.5642956670125,302.6148994776774L449.65204149882,302.88926410472936L453.73978733062745,315.8288116200491L457.8275331624349,305.1261643866693L461.9152789942423,317.9364686205069L466.0030248260498,311.25929198423466L470.09077065785726,318.01811237798825L474.17851648966473,316.3950136783019L478.26626232147214,317.4325654294278L482.3540081532796,302.6918283514995L486.4417539850871,317.6435911414401L490.52949981689454,322.6782201829317L494.617245648702,305.04445129266355L498.7049914805094,313.0386752099193L502.7927373123169,300.18337157174585L506.8804831441244,309.4023558560083L510.9682289759319,300.22934168742324L515.0559748077393,311.390130005778L519.1437206395467,307.18147231120486L523.2314664713542,311.41699790898315L527.3192123031616,308.4982769143529L531.406958134969,310.8917044001265L535.4947039667765,313.15769135405236L539.5824497985841,303.0187847323091L543.6701956303915,300.87687548879757L547.7579414621989,314.59229871215655L551.8456872940063,313.37242657012007L555.9334331258138,314.7409215522086L560.0211789576213,319.64342984645543L564.1089247894287,308.58893442000635L568.1966706212362,302.8102898034374L572.2844164530437,319.85733302423034L576.3721622848511,317.1485976937464L580.4599081166585,305.5392713990462L584.547653948466,312.6878323964538L588.6353997802735,319.72368687344874L592.7231456120809,310.64490104152367L596.8108914438883,311.7088700084461L600.8986372756958,311.64074687322284L604.9863831075033,308.11162178603473L609.0741289393108,309.9258466152305L613.1618747711182,309.5393301599611L617.2496206029256,319.0869349016187L621.3373664347331,322.31104861796996L625.4251122665405,317.0020896176886L629.512858098348,324.75789989579397L633.6006039301554,311.345442615802L637.688349761963,311.9778957231192L641.7760955937704,319.826616943921L645.8638414255778,315.5375982175679L649.9515872573852,321.92872702242676L654.0393330891927,320.19680464769414L658.1270789210001,309.4242315294566L662.2148247528077,313.49806435233336L666.3025705846151,322.6856045227803L670.3903164164226,301.16618213685774L674.47806224823,321.61896609966846L678.5658080800374,321.5271298731003L682.6535539118448,319.1822726226691L686.7412997436523,319.29764859927116L690.8290455754599,315.9374966220466L694.9167914072673,311.1849632300775L699.0045372390747,319.0649205551216L703.0922830708822,321.411892569547L707.1800289026896,316.6949981511197L711.267774734497,318.8335099049356L715.3555205663044,305.297252260627L719.443266398112,320.94463373161346L723.5310122299195,319.96223918564795L727.6187580617269,316.50567477124474L731.7065038935343,313.9518719045333L735.7942497253418,321.83914423290156L739.8819955571493,310.4581777813137L743.9697413889567,307.05767194688815L748.0574872207642,312.358414569028L752.1452330525717,315.0029096096551L756.2329788843791,305.02524507540465L760.3207247161865,321.89489079851944L764.408470547994,312.81444089000877L768.4962163798015,312.60348451452086L772.5839622116089,311.67066558350155L776.6717080434163,311.33081260915355L780.7594538752238,312.4166572495243L784.8471997070313,304.23127253449695L788.9349455388387,322.64289322374975L793.0226913706462,312.248238831756L797.1104372024537,319.59503295242405L801.1981830342611,320.51831811133826L805.2859288660685,319.4247424484969L809.3736746978759,313.0171115508308L813.4614205296836,324.4705693386792L817.549166361491,321.7287258177941L821.6369121932984,315.95871359851304L825.7246580251058,327.97130111912537L829.8124038569133,312.20126333647477L833.9001496887207,326.6893727877506L837.9878955205281,315.71946792106985L842.0756413523355,317.75432157090734L846.1633871841432,330.32024922449614L850.2511330159506,315.1101385446401L854.338878847758,316.7440537421329L858.4266246795654,315.45595446008656L862.5143705113729,305.9255798447424L866.6021163431803,310.79605466471634L870.6898621749878,309.81958839158705L874.7776080067953,320.3015027995386L878.8653538386028,314.96903871748555L882.9530996704102,307.8999027087784L887.0408455022176,329.93692224934915L891.128591334025,316.0031929789158L895.2163371658326,310.7397534069033" fill="none"></path></g></g></g></g></g></g><g transform="translate(41, 378)" clip-path="url(#clip_1)"><clipPath id="clip_1"><rect width="981" height="21"></rect></clipPath><g><g><line x1="0" y1="0" x2="0" y2="5" style="visibility: inherit;" fill="rgb(0, 0, 0)" stroke="rgb(204, 204, 204)" stroke-width="1px"></line><line x1="81.75491663614909" y1="0" x2="81.75491663614909" y2="5" style="visibility: inherit;" fill="rgb(0, 0, 0)" stroke="rgb(204, 204, 204)" stroke-width="1px"></line><line x1="163.50983327229818" y1="0" x2="163.50983327229818" y2="5" style="visibility: inherit;" fill="rgb(0, 0, 0)" stroke="rgb(204, 204, 204)" stroke-width="1px"></line><line x1="245.26474990844727" y1="0" x2="245.26474990844727" y2="5" style="visibility: inherit;" fill="rgb(0, 0, 0)" stroke="rgb(204, 204, 204)" stroke-width="1px"></line><line x1="327.01966654459636" y1="0" x2="327.01966654459636" y2="5" style="visibility: inherit;" fill="rgb(0, 0, 0)" stroke="rgb(204, 204, 204)" stroke-width="1px"></line><line x1="408.7745831807455" y1="0" x2="408.7745831807455" y2="5" style="visibility: inherit;" fill="rgb(0, 0, 0)" stroke="rgb(204, 204, 204)" stroke-width="1px"></line><line x1="490.52949981689454" y1="0" x2="490.52949981689454" y2="5" style="visibility: inherit;" fill="rgb(0, 0, 0)" stroke="rgb(204, 204, 204)" stroke-width="1px"></line><line x1="572.2844164530437" y1="0" x2="572.2844164530437" y2="5" style="visibility: inherit;" fill="rgb(0, 0, 0)" stroke="rgb(204, 204, 204)" stroke-width="1px"></line><line x1="654.0393330891927" y1="0" x2="654.0393330891927" y2="5" style="visibility: inherit;" fill="rgb(0, 0, 0)" stroke="rgb(204, 204, 204)" stroke-width="1px"></line><line x1="735.7942497253418" y1="0" x2="735.7942497253418" y2="5" style="visibility: inherit;" fill="rgb(0, 0, 0)" stroke="rgb(204, 204, 204)" stroke-width="1px"></line><line x1="817.549166361491" y1="0" x2="817.549166361491" y2="5" style="visibility: inherit;" fill="rgb(0, 0, 0)" stroke="rgb(204, 204, 204)" stroke-width="1px"></line><line x1="899.30408299764" y1="0" x2="899.30408299764" y2="5" style="visibility: inherit;" fill="rgb(0, 0, 0)" stroke="rgb(204, 204, 204)" stroke-width="1px"></line><line x1="981.0589996337891" y1="0" x2="981.0589996337891" y2="5" style="visibility: inherit;" fill="rgb(0, 0, 0)" stroke="rgb(204, 204, 204)" stroke-width="1px"></line></g><g transform="translate(0, 8)"><text style="text-anchor: middle; visibility: hidden; font-family: &quot;Helvetica Neue&quot;, sans-serif; font-size: 12px; font-weight: 200;" x="0" y="0" dx="0em" dy="0.95em" fill="rgb(50, 49, 63)" stroke="none" stroke-width="1px">-20</text><text style="text-anchor: middle; visibility: hidden; font-family: &quot;Helvetica Neue&quot;, sans-serif; font-size: 12px; font-weight: 200;" x="81.75491663614909" y="0" dx="0em" dy="0.95em" fill="rgb(50, 49, 63)" stroke="none" stroke-width="1px">0</text><text style="text-anchor: middle; visibility: hidden; font-family: &quot;Helvetica Neue&quot;, sans-serif; font-size: 12px; font-weight: 200;" x="163.50983327229818" y="0" dx="0em" dy="0.95em" fill="rgb(50, 49, 63)" stroke="none" stroke-width="1px">20</text><text style="text-anchor: middle; visibility: hidden; font-family: &quot;Helvetica Neue&quot;, sans-serif; font-size: 12px; font-weight: 200;" x="245.26474990844727" y="0" dx="0em" dy="0.95em" fill="rgb(50, 49, 63)" stroke="none" stroke-width="1px">40</text><text style="text-anchor: middle; visibility: hidden; font-family: &quot;Helvetica Neue&quot;, sans-serif; font-size: 12px; font-weight: 200;" x="327.01966654459636" y="0" dx="0em" dy="0.95em" fill="rgb(50, 49, 63)" stroke="none" stroke-width="1px">60</text><text style="text-anchor: middle; visibility: hidden; font-family: &quot;Helvetica Neue&quot;, sans-serif; font-size: 12px; font-weight: 200;" x="408.7745831807455" y="0" dx="0em" dy="0.95em" fill="rgb(50, 49, 63)" stroke="none" stroke-width="1px">80</text><text style="text-anchor: middle; visibility: hidden; font-family: &quot;Helvetica Neue&quot;, sans-serif; font-size: 12px; font-weight: 200;" x="490.52949981689454" y="0" dx="0em" dy="0.95em" fill="rgb(50, 49, 63)" stroke="none" stroke-width="1px">100</text><text style="text-anchor: middle; visibility: hidden; font-family: &quot;Helvetica Neue&quot;, sans-serif; font-size: 12px; font-weight: 200;" x="572.2844164530437" y="0" dx="0em" dy="0.95em" fill="rgb(50, 49, 63)" stroke="none" stroke-width="1px">120</text><text style="text-anchor: middle; visibility: hidden; font-family: &quot;Helvetica Neue&quot;, sans-serif; font-size: 12px; font-weight: 200;" x="654.0393330891927" y="0" dx="0em" dy="0.95em" fill="rgb(50, 49, 63)" stroke="none" stroke-width="1px">140</text><text style="text-anchor: middle; visibility: hidden; font-family: &quot;Helvetica Neue&quot;, sans-serif; font-size: 12px; font-weight: 200;" x="735.7942497253418" y="0" dx="0em" dy="0.95em" fill="rgb(50, 49, 63)" stroke="none" stroke-width="1px">160</text><text style="text-anchor: middle; visibility: hidden; font-family: &quot;Helvetica Neue&quot;, sans-serif; font-size: 12px; font-weight: 200;" x="817.549166361491" y="0" dx="0em" dy="0.95em" fill="rgb(50, 49, 63)" stroke="none" stroke-width="1px">180</text><text style="text-anchor: middle; visibility: hidden; font-family: &quot;Helvetica Neue&quot;, sans-serif; font-size: 12px; font-weight: 200;" x="899.30408299764" y="0" dx="0em" dy="0.95em" fill="rgb(50, 49, 63)" stroke="none" stroke-width="1px">200</text><text style="text-anchor: middle; visibility: hidden; font-family: &quot;Helvetica Neue&quot;, sans-serif; font-size: 12px; font-weight: 200;" x="981.0589996337891" y="0" dx="0em" dy="0.95em" fill="rgb(50, 49, 63)" stroke="none" stroke-width="1px">220</text></g><line x1="0" y1="0" x2="981.0589996337891" y2="0" fill="rgb(0, 0, 0)" stroke="rgb(204, 204, 204)" stroke-width="1px"></line></g></g></g></g></svg>